<svg width="193" height="41" viewBox="0 0 193 41" fill="none" xmlns="http://www.w3.org/2000/svg">
<g filter="url(#filter0_d)">
<path d="M15.6836 25.3164C15.6836 25.4727 15.6562 25.6016 15.6016 25.7031C15.5547 25.7969 15.5 25.9062 15.4375 26.0312C15.4219 26.0234 15.4023 26.0195 15.3789 26.0195C15.332 26.0195 15.2891 26.0312 15.25 26.0547C15.2109 26.0781 15.1719 26.0977 15.1328 26.1133C14.9062 26.3633 14.6719 26.6055 14.4297 26.8398C14.1953 27.0742 13.9336 27.2812 13.6445 27.4609C13.5664 27.5078 13.4883 27.5547 13.4102 27.6016C13.332 27.6406 13.25 27.6797 13.1641 27.7188C13.1328 27.7344 13.1016 27.75 13.0703 27.7656C13.0469 27.7734 13.0234 27.7852 13 27.8008C12.9453 27.832 12.8867 27.8828 12.8242 27.9531C12.7695 28.0234 12.7031 28.0938 12.625 28.1641C12.5547 28.2422 12.4766 28.3047 12.3906 28.3516C12.3047 28.4062 12.2109 28.4297 12.1094 28.4219C12.0469 28.4609 11.9922 28.5117 11.9453 28.5742C11.8984 28.6367 11.8438 28.6992 11.7812 28.7617C11.4453 28.8789 11.1367 29.0312 10.8555 29.2188C10.582 29.4141 10.2969 29.6016 10 29.7812C9.82031 29.8984 9.64062 29.9922 9.46094 30.0625C9.42188 30.0781 9.375 30.0898 9.32031 30.0977C9.27344 30.1055 9.22266 30.1172 9.16797 30.1328C8.91016 30.1953 8.64844 30.2461 8.38281 30.2852C8.125 30.3242 7.86328 30.3438 7.59766 30.3438C7.26953 30.3438 6.95312 30.3047 6.64844 30.2266C6.64844 30.2031 6.64062 30.1875 6.625 30.1797C6.60938 30.1719 6.58984 30.1641 6.56641 30.1562C6.55078 30.1484 6.53516 30.1367 6.51953 30.1211C6.50391 30.1133 6.50391 30.0938 6.51953 30.0625C6.34766 30.0469 6.19531 30.0039 6.0625 29.9336C5.9375 29.8633 5.85547 29.7383 5.81641 29.5586C5.79297 29.5742 5.77344 29.5938 5.75781 29.6172C5.74219 29.6406 5.71484 29.6484 5.67578 29.6406C5.56641 29.4844 5.44531 29.3398 5.3125 29.207C5.17969 29.0742 5.08203 28.9141 5.01953 28.7266C5.00391 28.6875 4.99219 28.6484 4.98438 28.6094C4.98438 28.5781 4.98047 28.543 4.97266 28.5039C4.93359 28.3945 4.86328 28.3398 4.76172 28.3398C4.77734 28.3086 4.78516 28.2695 4.78516 28.2227C4.78516 28.1992 4.78125 28.1758 4.77344 28.1523C4.77344 28.1289 4.77344 28.1055 4.77344 28.082C4.77344 28.043 4.78516 28.0039 4.80859 27.9648C4.73047 27.7852 4.67578 27.6094 4.64453 27.4375C4.61328 27.2578 4.59766 27.0742 4.59766 26.8867C4.59766 26.6445 4.60938 26.4062 4.63281 26.1719C4.65625 25.9297 4.66797 25.6875 4.66797 25.4453C4.71484 25.3516 4.75 25.2422 4.77344 25.1172C4.80469 24.9922 4.85547 24.8906 4.92578 24.8125C4.91797 24.7656 4.90234 24.7422 4.87891 24.7422C4.85547 24.7344 4.84375 24.7109 4.84375 24.6719C4.84375 24.5312 4.87109 24.3789 4.92578 24.2148C4.98047 24.0508 5.00781 23.8828 5.00781 23.7109C5.07812 23.6719 5.12109 23.6133 5.13672 23.5352C5.16016 23.457 5.20312 23.3945 5.26562 23.3477V23.2891C5.26562 23.1719 5.27734 23.0547 5.30078 22.9375C5.33203 22.8203 5.35938 22.707 5.38281 22.5977C5.41406 22.4805 5.4375 22.3672 5.45312 22.2578C5.47656 22.1406 5.48438 22.0273 5.47656 21.918C5.49219 21.8945 5.51172 21.8516 5.53516 21.7891C5.56641 21.7188 5.59375 21.6484 5.61719 21.5781C5.64844 21.5 5.67188 21.4258 5.6875 21.3555C5.71094 21.2852 5.72266 21.2344 5.72266 21.2031C5.72266 21.1562 5.71484 21.1133 5.69922 21.0742C5.68359 21.0352 5.67578 20.9922 5.67578 20.9453C5.67578 20.9062 5.6875 20.8516 5.71094 20.7812C5.73438 20.7031 5.75391 20.6406 5.76953 20.5938C5.80078 20.4609 5.82812 20.3242 5.85156 20.1836C5.88281 20.0352 5.91016 19.8945 5.93359 19.7617C6.00391 19.332 6.05469 18.9023 6.08594 18.4727C6.11719 18.0352 6.13672 17.5977 6.14453 17.1602C6.25391 17.0977 6.36719 17.0391 6.48438 16.9844C6.60938 16.9297 6.73828 16.9023 6.87109 16.9023C6.91016 16.9023 6.94922 16.9062 6.98828 16.9141C7.02734 16.9219 7.06641 16.9336 7.10547 16.9492C7.14453 17.1055 7.20703 17.2305 7.29297 17.3242C7.37891 17.418 7.45703 17.5312 7.52734 17.6641C7.48047 17.7891 7.44922 17.918 7.43359 18.0508L7.39844 18.4492C7.39062 18.582 7.375 18.7148 7.35156 18.8477C7.32812 18.9727 7.28906 19.0938 7.23438 19.2109C7.25 19.25 7.25781 19.2891 7.25781 19.3281V19.4453C7.25781 19.5547 7.24609 19.6602 7.22266 19.7617C7.20703 19.8633 7.1875 19.9688 7.16406 20.0781C7.14062 20.1797 7.12109 20.2812 7.10547 20.3828C7.08984 20.4844 7.08984 20.5859 7.10547 20.6875C7.08203 20.7266 7.05859 20.7578 7.03516 20.7812C7.01172 20.7969 6.99609 20.8242 6.98828 20.8633L6.96484 21.0859C6.94922 21.1719 6.93359 21.2578 6.91797 21.3438C6.91016 21.4219 6.89844 21.5039 6.88281 21.5898C6.82812 21.8242 6.76562 22.0586 6.69531 22.293C6.63281 22.5273 6.60156 22.7695 6.60156 23.0195V23.0898C6.53125 23.1992 6.47656 23.3359 6.4375 23.5C6.39844 23.6562 6.38672 23.8008 6.40234 23.9336C6.31641 24.1602 6.23438 24.3828 6.15625 24.6016C6.07812 24.8203 6.03906 25.0469 6.03906 25.2812C6.03906 25.3203 6.03906 25.3633 6.03906 25.4102C6.04688 25.4492 6.05469 25.4883 6.0625 25.5273C6 25.6836 5.96094 25.8438 5.94531 26.0078C5.92969 26.1641 5.92188 26.3203 5.92188 26.4766C5.92188 26.5859 5.92578 26.7148 5.93359 26.8633C5.94922 27.0039 5.96875 27.1523 5.99219 27.3086C6.02344 27.457 6.05859 27.6016 6.09766 27.7422C6.13672 27.8828 6.17969 27.9961 6.22656 28.082C6.40625 28.3711 6.64062 28.5977 6.92969 28.7617C7.22656 28.9336 7.53906 29.043 7.86719 29.0898C8 29.043 8.10547 29.0156 8.18359 29.0078C8.26953 29 8.38672 29 8.53516 29.0078C8.66016 28.9453 8.78516 28.8984 8.91016 28.8672C9.04297 28.8359 9.17578 28.8008 9.30859 28.7617C9.34766 28.7461 9.38672 28.7305 9.42578 28.7148C9.47266 28.6992 9.51172 28.6836 9.54297 28.668C9.58203 28.6523 9.625 28.6172 9.67188 28.5625C9.71875 28.5078 9.76172 28.4609 9.80078 28.4219C9.96484 28.375 10.1211 28.3086 10.2695 28.2227C10.418 28.1445 10.5625 28.0625 10.7031 27.9766L11.1367 27.7188C11.2852 27.6328 11.4414 27.5586 11.6055 27.4961C11.668 27.4727 11.7031 27.4414 11.7109 27.4023C11.7266 27.3555 11.75 27.3008 11.7812 27.2383C11.7969 27.2539 11.8203 27.2617 11.8516 27.2617C11.9453 27.2617 12.0117 27.2344 12.0508 27.1797C12.0898 27.1172 12.1367 27.0547 12.1914 26.9922C12.293 26.9766 12.3906 26.9492 12.4844 26.9102C12.5781 26.8633 12.6484 26.793 12.6953 26.6992C12.8906 26.6602 13.0625 26.5898 13.2109 26.4883C13.3594 26.3867 13.5039 26.2773 13.6445 26.1602C13.7852 26.0352 13.9258 25.918 14.0664 25.8086C14.207 25.6914 14.3672 25.5977 14.5469 25.5273C14.5703 25.4883 14.5859 25.4531 14.5938 25.4219C14.6016 25.3906 14.6133 25.3555 14.6289 25.3164C14.7617 25.3008 14.8672 25.2656 14.9453 25.2109C15.0234 25.1484 15.1133 25.0859 15.2148 25.0234C15.4336 25.0469 15.5898 25.1445 15.6836 25.3164ZM21.9414 21.2148C21.8945 21.2852 21.8672 21.3633 21.8594 21.4492C21.8516 21.5352 21.8477 21.6133 21.8477 21.6836C21.8477 21.7773 21.8477 21.8711 21.8477 21.9648C21.8555 22.0508 21.8594 22.1367 21.8594 22.2227V22.3984C21.8438 22.4531 21.8203 22.5078 21.7891 22.5625C21.7578 22.6172 21.7344 22.6719 21.7188 22.7266C21.6094 23.0156 21.5547 23.3047 21.5547 23.5938V23.6172C21.5156 23.7109 21.4766 23.7969 21.4375 23.875C21.4062 23.9531 21.375 24.0312 21.3438 24.1094C21.3125 24.1797 21.2891 24.2578 21.2734 24.3438C21.2578 24.4219 21.2539 24.5156 21.2617 24.625C21.1523 24.8984 21.0078 25.1484 20.8281 25.375C20.6484 25.5938 20.4727 25.8203 20.3008 26.0547C20.1367 26.1172 19.9844 26.1992 19.8438 26.3008C19.7109 26.4023 19.582 26.5156 19.457 26.6406C19.2148 26.7188 18.9766 26.8086 18.7422 26.9102C18.5078 27.0117 18.2969 27.1484 18.1094 27.3203C17.9609 27.3359 17.8125 27.3594 17.6641 27.3906C17.5156 27.4219 17.3711 27.4688 17.2305 27.5312H17.0898C17.0195 27.5312 16.9688 27.5156 16.9375 27.4844C16.8359 27.5391 16.7305 27.5781 16.6211 27.6016C16.5117 27.6172 16.4023 27.625 16.293 27.625C16.1523 27.625 16.0117 27.6172 15.8711 27.6016C15.7383 27.5781 15.6016 27.5547 15.4609 27.5312C15.3828 27.4219 15.2734 27.3398 15.1328 27.2852C14.9922 27.2227 14.8672 27.1641 14.7578 27.1094C14.5312 26.7969 14.3672 26.4961 14.2656 26.207C14.1641 25.9102 14.0586 25.5781 13.9492 25.2109C13.9648 25.1016 13.9922 24.9961 14.0312 24.8945C14.0703 24.7852 14.0859 24.668 14.0781 24.543C14.2188 24.1367 14.4023 23.7695 14.6289 23.4414C14.8633 23.1055 15.1289 22.7852 15.4258 22.4805C15.4258 22.4336 15.4336 22.3945 15.4492 22.3633C15.4727 22.332 15.4766 22.2852 15.4609 22.2227C15.4688 22.2305 15.4844 22.2344 15.5078 22.2344C15.5703 22.2344 15.6094 22.2188 15.625 22.1875C15.6406 22.1484 15.6445 22.1055 15.6367 22.0586C15.918 21.8789 16.1719 21.6719 16.3984 21.4375C16.6328 21.2031 16.8984 21.0078 17.1953 20.8516C17.2188 20.7812 17.2578 20.7227 17.3125 20.6758C17.3672 20.6289 17.4102 20.5742 17.4414 20.5117C17.6914 20.4414 17.918 20.3359 18.1211 20.1953C18.3242 20.0547 18.5391 19.9297 18.7656 19.8203C18.8906 19.75 19.0078 19.7031 19.1172 19.6797C19.2344 19.6484 19.3594 19.6172 19.4922 19.5859C19.5391 19.5703 19.582 19.5586 19.6211 19.5508C19.6602 19.543 19.7031 19.5391 19.75 19.5391C19.8906 19.5391 20.0273 19.5664 20.1602 19.6211C20.293 19.668 20.4297 19.6914 20.5703 19.6914C20.6094 19.6914 20.6406 19.6914 20.6641 19.6914C20.6953 19.6836 20.7266 19.6758 20.7578 19.668C20.8906 19.832 21.0586 19.957 21.2617 20.043C21.3086 20.1602 21.3633 20.2617 21.4258 20.3477C21.4961 20.4336 21.5664 20.5195 21.6367 20.6055C21.707 20.6836 21.7695 20.7734 21.8242 20.875C21.8867 20.9688 21.9258 21.082 21.9414 21.2148ZM20.7695 21.8242C20.7695 21.7852 20.7656 21.75 20.7578 21.7188C20.6797 21.6953 20.6055 21.6641 20.5352 21.625C20.4648 21.5859 20.3867 21.5664 20.3008 21.5664C20.2461 21.5664 20.1914 21.5781 20.1367 21.6016C20.1289 21.5469 20.1055 21.5078 20.0664 21.4844C20.0352 21.4609 19.9961 21.4414 19.9492 21.4258C19.9102 21.4023 19.8672 21.3867 19.8203 21.3789C19.7812 21.3633 19.7461 21.3398 19.7148 21.3086C19.6914 21.2461 19.6641 21.1836 19.6328 21.1211C19.6094 21.0508 19.5625 21 19.4922 20.9688C19.4219 21.0391 19.3398 21.0977 19.2461 21.1445C19.1523 21.1836 19.0547 21.2227 18.9531 21.2617C18.8594 21.3008 18.7656 21.3477 18.6719 21.4023C18.5859 21.457 18.5117 21.5234 18.4492 21.6016H18.2383C18.1914 21.6875 18.125 21.7539 18.0391 21.8008C17.9531 21.8398 17.8789 21.8984 17.8164 21.9766C17.6914 22.0391 17.5742 22.1172 17.4648 22.2109C17.3633 22.2969 17.2617 22.3906 17.1602 22.4922C17.0586 22.5859 16.957 22.6836 16.8555 22.7852C16.7617 22.8867 16.6602 22.9805 16.5508 23.0664C16.4492 23.2852 16.3359 23.4766 16.2109 23.6406C16.0938 23.7969 15.9805 23.957 15.8711 24.1211C15.7695 24.2852 15.6797 24.4648 15.6016 24.6602C15.5312 24.8477 15.4961 25.082 15.4961 25.3633V25.4805C15.4961 25.5195 15.5 25.5586 15.5078 25.5977C15.6094 25.707 15.6914 25.8242 15.7539 25.9492C15.8242 26.0742 15.9375 26.1641 16.0938 26.2188C16.25 26.2812 16.4141 26.3086 16.5859 26.3008C16.7656 26.293 16.9375 26.3125 17.1016 26.3594C17.4766 26.2891 17.8359 26.1758 18.1797 26.0195C18.5312 25.8555 18.8633 25.6602 19.1758 25.4336C19.2227 25.3945 19.2773 25.3555 19.3398 25.3164C19.4023 25.2695 19.4531 25.2227 19.4922 25.1758C19.5312 25.1367 19.5625 25.0938 19.5859 25.0469C19.6172 25 19.6484 24.957 19.6797 24.918C19.7422 24.8164 19.8125 24.7148 19.8906 24.6133C19.9688 24.5117 20.0508 24.418 20.1367 24.332C20.1758 24.1602 20.2266 23.9961 20.2891 23.8398C20.3516 23.6758 20.4141 23.5156 20.4766 23.3594C20.5391 23.2031 20.5898 23.043 20.6289 22.8789C20.6758 22.7148 20.6992 22.543 20.6992 22.3633C20.6992 22.3242 20.6953 22.2812 20.6875 22.2344C20.6875 22.1875 20.6836 22.1445 20.6758 22.1055C20.7383 22.0195 20.7695 21.9258 20.7695 21.8242ZM29.1367 24.9883C29.1367 25.0742 29.1055 25.1406 29.043 25.1875C28.9805 25.2266 28.9492 25.2812 28.9492 25.3516C28.9492 25.3828 28.9648 25.4219 28.9961 25.4688C28.8867 25.4688 28.8125 25.5039 28.7734 25.5742C28.7344 25.6445 28.6953 25.7227 28.6562 25.8086H28.5039C28.4648 25.8086 28.4336 25.8164 28.4102 25.832C28.3867 25.8477 28.3633 25.8711 28.3398 25.9023C28.3242 25.9258 28.3008 25.9648 28.2695 26.0195C28.1211 26.0508 27.9766 26.1016 27.8359 26.1719C27.7031 26.2344 27.5703 26.3047 27.4375 26.3828C27.3125 26.4531 27.1836 26.5273 27.0508 26.6055C26.918 26.6758 26.7812 26.7344 26.6406 26.7812C26.5703 26.8984 26.4688 26.9922 26.3359 27.0625H26.3008C26.2617 27.0703 26.2266 27.0664 26.1953 27.0508C26.1719 27.0273 26.1406 27.0156 26.1016 27.0156C26.0781 27.0156 26.0625 27.0195 26.0547 27.0273C25.8203 27.1836 25.5586 27.2617 25.2695 27.2617C25.1914 27.2617 25.1172 27.2578 25.0469 27.25C24.9766 27.2344 24.9023 27.2266 24.8242 27.2266C24.8008 27.2266 24.7852 27.2344 24.7773 27.25L24.7539 27.2969C24.7461 27.3125 24.7344 27.3281 24.7188 27.3438C24.7109 27.3594 24.6836 27.3672 24.6367 27.3672C24.5508 27.3672 24.4648 27.3555 24.3789 27.332C24.293 27.3086 24.2031 27.3047 24.1094 27.3203C23.9297 27.2188 23.7891 27.1211 23.6875 27.0273C23.5859 26.9336 23.4922 26.793 23.4062 26.6055C23.3672 26.5195 23.3125 26.4375 23.2422 26.3594C23.1797 26.2812 23.1328 26.1953 23.1016 26.1016C23.0938 26.0703 23.082 26.0156 23.0664 25.9375C23.0508 25.8516 23.0352 25.7617 23.0195 25.668C23.0039 25.5742 22.9883 25.4844 22.9727 25.3984C22.9648 25.3125 22.9609 25.2539 22.9609 25.2227C22.9609 25.1289 22.9648 25.0391 22.9727 24.9531C22.9883 24.8594 23.0039 24.7656 23.0195 24.6719C23.0664 24.375 23.0977 24.0781 23.1133 23.7812C23.1367 23.4766 23.2031 23.1836 23.3125 22.9023C23.2969 22.8164 23.2891 22.7344 23.2891 22.6562V22.3984C23.2891 22.25 23.2695 22.125 23.2305 22.0234C23.293 21.9219 23.3242 21.8086 23.3242 21.6836C23.3242 21.543 23.2656 21.4609 23.1484 21.4375V21.4023C23.1484 21.2383 23.0938 21.1094 22.9844 21.0156C22.9844 20.7422 23.0508 20.5391 23.1836 20.4062C23.3242 20.2656 23.5078 20.1445 23.7344 20.043C23.7656 19.9961 23.7773 19.957 23.7695 19.9258C23.8242 19.9414 23.875 19.957 23.9219 19.9727C23.9688 19.9883 24.0156 19.9961 24.0625 19.9961C24.1406 19.9961 24.2109 19.9844 24.2734 19.9609C24.2969 20.0547 24.3555 20.1133 24.4492 20.1367C24.5508 20.1523 24.6328 20.1758 24.6953 20.207V20.3594C24.6953 20.6016 24.7539 20.832 24.8711 21.0508C24.8398 21.1133 24.8203 21.1797 24.8125 21.25C24.8047 21.3203 24.8008 21.3867 24.8008 21.4492C24.8008 21.543 24.8047 21.6367 24.8125 21.7305C24.8203 21.8242 24.8242 21.9141 24.8242 22C24.8242 22.0938 24.8125 22.1875 24.7891 22.2812C24.7734 22.375 24.7305 22.457 24.6602 22.5273C24.6523 22.6289 24.6445 22.7461 24.6367 22.8789C24.6367 23.0039 24.6289 23.1328 24.6133 23.2656C24.6055 23.3984 24.5859 23.5273 24.5547 23.6523C24.5234 23.7773 24.4766 23.8789 24.4141 23.957C24.4062 24.0742 24.3984 24.1953 24.3906 24.3203C24.3906 24.4375 24.3906 24.5508 24.3906 24.6602C24.3906 24.832 24.3984 25.0352 24.4141 25.2695C24.4375 25.5039 24.4922 25.6992 24.5781 25.8555C24.6172 25.918 24.6914 25.9648 24.8008 25.9961C24.918 26.0273 25.0117 26.043 25.082 26.043C25.168 26.043 25.2539 26.0312 25.3398 26.0078C25.4336 25.9766 25.5 25.9258 25.5391 25.8555C25.5859 25.8633 25.6172 25.8867 25.6328 25.9258C25.6484 25.9648 25.6758 25.9961 25.7148 26.0195C26.1602 25.832 26.6055 25.6523 27.0508 25.4805C27.4961 25.3086 27.9336 25.1094 28.3633 24.8828C28.4258 24.9141 28.4922 24.9297 28.5625 24.9297C28.6406 24.9297 28.7188 24.9219 28.7969 24.9062C28.875 24.8906 28.9531 24.8828 29.0312 24.8828H29.1133C29.1289 24.9297 29.1367 24.9648 29.1367 24.9883ZM37.7734 27.1445C37.75 27.2539 37.6992 27.3438 37.6211 27.4141C37.5508 27.4766 37.4648 27.5273 37.3633 27.5664C37.2617 27.6055 37.1562 27.6328 37.0469 27.6484C36.9453 27.6562 36.8516 27.6602 36.7656 27.6602C36.7266 27.6602 36.6875 27.6602 36.6484 27.6602C36.6172 27.6523 36.582 27.6484 36.543 27.6484C36.5039 27.6484 36.4844 27.668 36.4844 27.707C36.4844 27.7461 36.4648 27.7734 36.4258 27.7891C36.3867 27.7734 36.3477 27.7617 36.3086 27.7539C36.2695 27.7461 36.2305 27.7422 36.1914 27.7422C36.1367 27.7422 36.082 27.7461 36.0273 27.7539C35.9805 27.7617 35.9336 27.7656 35.8867 27.7656C35.8242 27.7656 35.7773 27.7578 35.7461 27.7422C35.7227 27.7266 35.6992 27.7109 35.6758 27.6953C35.6602 27.6719 35.6406 27.6484 35.6172 27.625C35.6016 27.6016 35.5742 27.582 35.5352 27.5664C35.4805 27.543 35.4336 27.5391 35.3945 27.5547C35.3633 27.5703 35.3125 27.5469 35.2422 27.4844C35.1484 27.4062 35.0664 27.3125 34.9961 27.2031C34.9336 27.0859 34.8711 26.9648 34.8086 26.8398C34.7461 26.7148 34.6797 26.5898 34.6094 26.4648C34.5391 26.3398 34.457 26.2305 34.3633 26.1367H34.2695C34.1289 26.1367 34.0312 26.1953 33.9766 26.3125C33.9375 26.2891 33.8984 26.2617 33.8594 26.2305C33.8203 26.1914 33.7773 26.1602 33.7305 26.1367C33.5508 26.1914 33.3633 26.2383 33.168 26.2773C32.9727 26.3164 32.7773 26.3359 32.582 26.3359H32.418C32.3711 26.3359 32.3203 26.3281 32.2656 26.3125C32.1875 26.3438 32.1172 26.3828 32.0547 26.4297C31.9922 26.4688 31.9219 26.4883 31.8438 26.4883C31.7969 26.4883 31.7422 26.4727 31.6797 26.4414C31.6328 26.4414 31.6094 26.4609 31.6094 26.5C31.6172 26.5391 31.5938 26.5586 31.5391 26.5586H31.4336C31.3242 26.5586 31.2148 26.5625 31.1055 26.5703C31.0039 26.5781 30.8984 26.582 30.7891 26.582C30.6406 26.582 30.4883 26.5625 30.332 26.5234C30.293 26.5469 30.25 26.5586 30.2031 26.5586C30.1719 26.5742 30.1484 26.6016 30.1328 26.6406C30.1172 26.6719 30.1016 26.7031 30.0859 26.7344C30.0703 26.7578 30.0469 26.7812 30.0156 26.8047C29.9922 26.8203 29.957 26.8242 29.9102 26.8164C29.8945 26.9102 29.8555 26.9844 29.793 27.0391C29.7305 27.0938 29.6992 27.1758 29.6992 27.2852C29.6133 27.332 29.543 27.3906 29.4883 27.4609C29.4336 27.5312 29.3789 27.6055 29.3242 27.6836C29.2695 27.7617 29.2109 27.8359 29.1484 27.9062C29.0938 27.9766 29.0234 28.0312 28.9375 28.0703C28.8984 28.1172 28.8867 28.1914 28.9023 28.293C28.8164 28.3633 28.7109 28.4258 28.5859 28.4805C28.4609 28.5352 28.3438 28.5625 28.2344 28.5625C28.0078 28.5625 27.8516 28.4414 27.7656 28.1992C27.7656 28.1211 27.7734 28.0391 27.7891 27.9531C27.7969 27.8594 27.8125 27.7734 27.8359 27.6953C27.8594 27.6094 27.8945 27.5352 27.9414 27.4727C27.9883 27.4023 28.0547 27.3516 28.1406 27.3203C28.1406 27.25 28.1172 27.2031 28.0703 27.1797C28.0234 27.1484 28.0039 27.0977 28.0117 27.0273C28.2227 26.9258 28.4062 26.793 28.5625 26.6289C28.7188 26.4648 28.8594 26.293 28.9844 26.1133C29.1172 25.9258 29.25 25.7383 29.3828 25.5508C29.5156 25.3633 29.6641 25.1953 29.8281 25.0469V24.8008C30.0625 24.5508 30.2148 24.2695 30.2852 23.957C30.3711 23.9414 30.4258 23.9023 30.4492 23.8398C30.4805 23.7773 30.4961 23.7031 30.4961 23.6172C30.5352 23.6172 30.5586 23.6016 30.5664 23.5703C30.582 23.5312 30.6172 23.5195 30.6719 23.5352C30.7422 23.3477 30.8203 23.1758 30.9062 23.0195C30.9922 22.8633 31.0781 22.707 31.1641 22.5508C31.25 22.3867 31.3242 22.2188 31.3867 22.0469C31.457 21.875 31.5078 21.6836 31.5391 21.4727C31.6484 21.4648 31.707 21.4141 31.7148 21.3203C31.7305 21.2188 31.7461 21.1289 31.7617 21.0508C31.8789 20.9414 31.9648 20.8125 32.0195 20.6641C32.082 20.5156 32.1367 20.3633 32.1836 20.207C32.2305 20.043 32.2812 19.8828 32.3359 19.7266C32.3984 19.5625 32.4844 19.418 32.5938 19.293V19.2578C32.5938 19.2188 32.5781 19.1953 32.5469 19.1875C32.5156 19.1719 32.5 19.1445 32.5 19.1055C32.5078 19.0977 32.5117 19.0898 32.5117 19.082C32.6055 19.043 32.6758 18.9805 32.7227 18.8945C32.7695 18.8008 32.8398 18.7344 32.9336 18.6953C33.0977 18.8281 33.2422 18.9102 33.3672 18.9414C33.4922 18.9648 33.6562 18.9844 33.8594 19C33.9609 19.1094 34.0156 19.2422 34.0234 19.3984C34.0391 19.5469 34.0664 19.6953 34.1055 19.8438C34.168 20.0938 34.2344 20.3398 34.3047 20.582C34.3828 20.8164 34.4414 21.0586 34.4805 21.3086C34.5039 21.457 34.5469 21.5977 34.6094 21.7305C34.6719 21.8633 34.7148 22 34.7383 22.1406C34.7539 22.25 34.7539 22.375 34.7383 22.5156C34.7227 22.6484 34.7383 22.7656 34.7852 22.8672L34.8672 23.0547C34.9062 23.1406 34.9375 23.2305 34.9609 23.3242C34.9922 23.418 35.0195 23.5117 35.043 23.6055C35.1055 23.8398 35.1602 24.0938 35.207 24.3672C35.2617 24.6328 35.3438 24.875 35.4531 25.0938C35.4922 25.1719 35.5508 25.2266 35.6289 25.2578C35.7148 25.2891 35.8086 25.3125 35.9102 25.3281C36.0117 25.3359 36.1094 25.3398 36.2031 25.3398C36.3047 25.332 36.3906 25.3281 36.4609 25.3281H36.5781C36.625 25.3281 36.6719 25.3359 36.7188 25.3516C36.75 25.4141 36.7656 25.4688 36.7656 25.5156C36.7656 25.6094 36.7344 25.6836 36.6719 25.7383C36.6094 25.793 36.5781 25.8555 36.5781 25.9258C36.5781 25.9648 36.5938 26.0078 36.625 26.0547C36.5938 26.0469 36.5469 26.043 36.4844 26.043C36.3047 26.043 36.1289 26.0742 35.957 26.1367C36.0195 26.2695 36.1016 26.3828 36.2031 26.4766C36.3125 26.5625 36.4258 26.6445 36.543 26.7227C36.6211 26.6602 36.7031 26.6289 36.7891 26.6289C36.8828 26.6289 36.9688 26.6523 37.0469 26.6992C37.1328 26.7383 37.2227 26.7578 37.3164 26.7578C37.3867 26.7578 37.4375 26.7461 37.4688 26.7227C37.5312 26.793 37.582 26.8672 37.6211 26.9453C37.6602 27.0156 37.7109 27.082 37.7734 27.1445ZM34.1055 25.2695C34.0898 25.1367 34.0625 25.043 34.0234 24.9883C33.9922 24.9258 33.9648 24.8516 33.9414 24.7656C33.9102 24.6562 33.8867 24.5391 33.8711 24.4141C33.8633 24.2891 33.8477 24.168 33.8242 24.0508C33.7695 23.7852 33.707 23.5195 33.6367 23.2539C33.5742 22.9883 33.4922 22.7305 33.3906 22.4805C33.4219 22.4336 33.4375 22.3906 33.4375 22.3516V22.3164C33.3672 22.2383 33.3164 22.1445 33.2852 22.0352C33.2539 21.918 33.2227 21.8047 33.1914 21.6953C33.168 21.5781 33.1328 21.4727 33.0859 21.3789C33.0469 21.2773 32.9805 21.1953 32.8867 21.1328C32.8633 21.1797 32.8516 21.2344 32.8516 21.2969C32.8516 21.3516 32.8555 21.4023 32.8633 21.4492C32.8789 21.4961 32.8867 21.5469 32.8867 21.6016C32.8086 21.6406 32.75 21.7031 32.7109 21.7891C32.6797 21.8672 32.625 21.9297 32.5469 21.9766C32.4844 22.2266 32.3945 22.4648 32.2773 22.6914C32.1602 22.9102 32.0352 23.1289 31.9023 23.3477C31.7773 23.5664 31.6562 23.7891 31.5391 24.0156C31.4219 24.2344 31.3281 24.4648 31.2578 24.707C31.1562 24.7773 31.0859 24.8672 31.0469 24.9766C31.0156 25.0859 31 25.1953 31 25.3047C31.0703 25.3438 31.1484 25.3672 31.2344 25.375C31.3281 25.375 31.418 25.375 31.5039 25.375C31.5898 25.375 31.6719 25.3828 31.75 25.3984C31.8281 25.4141 31.8984 25.4531 31.9609 25.5156C32.0625 25.4844 32.1719 25.4648 32.2891 25.457C32.4141 25.4414 32.5156 25.4062 32.5938 25.3516C32.75 25.4062 32.918 25.4336 33.0977 25.4336C33.1914 25.4336 33.2812 25.4258 33.3672 25.4102C33.4609 25.3945 33.5508 25.375 33.6367 25.3516C33.707 25.3672 33.7617 25.3945 33.8008 25.4336C33.8398 25.4648 33.8984 25.4766 33.9766 25.4688C34.0156 25.4375 34.0391 25.4062 34.0469 25.375C34.0547 25.3359 34.0742 25.3008 34.1055 25.2695ZM51.3906 25.8906C51.3906 25.9688 51.3672 26.0352 51.3203 26.0898C51.2812 26.1367 51.2305 26.1797 51.168 26.2188C51.1133 26.2578 51.0547 26.293 50.9922 26.3242C50.9375 26.3555 50.8867 26.3945 50.8398 26.4414C50.8086 26.4727 50.7852 26.5117 50.7695 26.5586C50.7617 26.5977 50.7422 26.625 50.7109 26.6406C50.6641 26.6797 50.6133 26.7031 50.5586 26.7109C50.5039 26.7188 50.4453 26.7305 50.3828 26.7461C50.3281 26.7539 50.2734 26.7695 50.2188 26.793C50.1641 26.8086 50.1172 26.8438 50.0781 26.8984C49.7109 26.9375 49.3477 26.9883 48.9883 27.0508C48.6367 27.1133 48.2734 27.1445 47.8984 27.1445C47.8281 27.1445 47.75 27.1523 47.6641 27.168C47.5859 27.1758 47.5117 27.1836 47.4414 27.1914C47.2773 27.207 47.1133 27.2188 46.9492 27.2266C46.793 27.2344 46.6328 27.2383 46.4688 27.2383C46.2422 27.2383 46.0156 27.2305 45.7891 27.2148C45.5625 27.1914 45.3398 27.1562 45.1211 27.1094C45.0664 27.0703 45.0039 27.0391 44.9336 27.0156C44.8633 26.9922 44.7891 26.9688 44.7109 26.9453C44.6406 26.9219 44.5742 26.8945 44.5117 26.8633C44.4492 26.832 44.4023 26.7852 44.3711 26.7227C44.2539 26.7148 44.1484 26.6914 44.0547 26.6523C43.9688 26.6133 43.8867 26.5703 43.8086 26.5234C43.7383 26.4688 43.6641 26.4141 43.5859 26.3594C43.5078 26.3047 43.418 26.2578 43.3164 26.2188C43.2383 26.1094 43.1562 26.0039 43.0703 25.9023C42.9922 25.793 42.8945 25.7031 42.7773 25.6328C42.7539 25.4844 42.7148 25.3359 42.6602 25.1875C42.6133 25.0391 42.5625 24.8945 42.5078 24.7539C42.4609 24.6055 42.4219 24.457 42.3906 24.3086C42.3516 24.1602 42.332 24.0078 42.332 23.8516C42.332 23.7422 42.3477 23.6094 42.3789 23.4531C42.4102 23.2969 42.4492 23.1406 42.4961 22.9844C42.5508 22.8203 42.6133 22.668 42.6836 22.5273C42.7539 22.3867 42.8242 22.2734 42.8945 22.1875C42.918 22.1641 42.9453 22.1445 42.9766 22.1289C43.0078 22.1133 43.0352 22.0898 43.0586 22.0586C43.1289 21.9805 43.2031 21.918 43.2812 21.8711C43.3594 21.8164 43.4414 21.7539 43.5273 21.6836C43.5586 21.6523 43.582 21.6172 43.5977 21.5781C43.6211 21.5391 43.6523 21.5039 43.6914 21.4727C43.7148 21.457 43.7461 21.4531 43.7852 21.4609C43.832 21.4688 43.8711 21.4609 43.9023 21.4375C43.9336 21.4141 43.9492 21.3867 43.9492 21.3555C43.9492 21.3242 43.9609 21.2969 43.9844 21.2734C43.9922 21.2656 44.0156 21.2656 44.0547 21.2734C44.0938 21.2734 44.1172 21.2734 44.125 21.2734C44.1797 21.2734 44.2422 21.2383 44.3125 21.168C44.3828 21.0898 44.4414 21.0391 44.4883 21.0156C44.543 20.9844 44.5977 20.9648 44.6523 20.957C44.707 20.9414 44.7656 20.918 44.8281 20.8867C44.9141 20.8398 44.9961 20.8047 45.0742 20.7812C45.1602 20.75 45.2461 20.7148 45.332 20.6758C45.3789 20.6602 45.4219 20.6328 45.4609 20.5938C45.5 20.5547 45.5391 20.5273 45.5781 20.5117C45.6484 20.4883 45.7227 20.4727 45.8008 20.4648C45.8867 20.4492 45.9648 20.4375 46.0352 20.4297C46.1133 20.4141 46.1875 20.3984 46.2578 20.3828C46.3359 20.3594 46.4062 20.3203 46.4688 20.2656H46.5625C46.7031 20.2656 46.8398 20.2461 46.9727 20.207C47.1055 20.168 47.2422 20.1484 47.3828 20.1484C47.4219 20.1484 47.4805 20.1562 47.5586 20.1719C47.6211 20.1328 47.6914 20.1133 47.7695 20.1133C47.9023 20.1133 48.0352 20.1484 48.168 20.2188C48.3008 20.2812 48.4375 20.3125 48.5781 20.3125H48.6484C48.6797 20.3125 48.7109 20.3086 48.7422 20.3008C48.8281 20.3867 48.9297 20.4336 49.0469 20.4414C49.1719 20.4492 49.2773 20.4844 49.3633 20.5469C49.418 20.5938 49.4609 20.6484 49.4922 20.7109C49.5312 20.7734 49.5625 20.8398 49.5859 20.9102L49.6562 21.1211C49.6797 21.1914 49.7109 21.2539 49.75 21.3086C49.7109 21.5898 49.5938 21.8164 49.3984 21.9883C49.2109 22.1523 48.9727 22.2344 48.6836 22.2344C48.5742 22.2344 48.4805 22.2227 48.4023 22.1992C48.332 22.168 48.2656 22.1367 48.2031 22.1055C48.1484 22.0742 48.0898 22.043 48.0273 22.0117C47.9648 21.9805 47.8945 21.957 47.8164 21.9414C47.9023 21.7852 47.957 21.6172 47.9805 21.4375C47.8945 21.3984 47.8086 21.3711 47.7227 21.3555C47.6367 21.3398 47.5547 21.3125 47.4766 21.2734C47.2656 21.3281 47.0586 21.3672 46.8555 21.3906C46.6602 21.4062 46.4766 21.4883 46.3047 21.6367C46.2656 21.6289 46.2227 21.6211 46.1758 21.6133C46.1367 21.6055 46.0977 21.6016 46.0586 21.6016C46.0117 21.6016 45.918 21.6367 45.7773 21.707C45.6367 21.7695 45.4844 21.8438 45.3203 21.9297C45.1641 22.0156 45.0117 22.1016 44.8633 22.1875C44.7227 22.2734 44.625 22.332 44.5703 22.3633C44.5078 22.4023 44.4531 22.4492 44.4062 22.5039C44.3594 22.5586 44.3125 22.6172 44.2656 22.6797C44.2188 22.7344 44.1719 22.7891 44.125 22.8438C44.0781 22.8906 44.0195 22.9258 43.9492 22.9492C43.9336 23.0352 43.9062 23.1094 43.8672 23.1719C43.8281 23.2344 43.7852 23.3008 43.7383 23.3711C43.7305 23.5117 43.7148 23.6523 43.6914 23.793C43.6758 23.9336 43.668 24.0742 43.668 24.2148V24.3672C43.668 24.4141 43.6758 24.457 43.6914 24.4961C43.7695 24.5977 43.832 24.7109 43.8789 24.8359C43.9336 24.9609 44.0234 25.0469 44.1484 25.0938C44.1562 25.125 44.1523 25.1445 44.1367 25.1523C44.1289 25.1602 44.1211 25.1797 44.1133 25.2109C44.1602 25.2969 44.2188 25.3672 44.2891 25.4219C44.3672 25.4688 44.4453 25.5195 44.5234 25.5742C44.6016 25.6211 44.6758 25.6719 44.7461 25.7266C44.8164 25.7812 44.8711 25.8516 44.9102 25.9375C45.0273 25.9375 45.1367 25.957 45.2383 25.9961C45.3477 26.0352 45.4492 26.0781 45.543 26.125C45.6445 26.1719 45.7383 26.2148 45.8242 26.2539C45.918 26.293 46.0117 26.3125 46.1055 26.3125C46.1914 26.3125 46.2695 26.3008 46.3398 26.2773C46.543 26.3398 46.7461 26.3867 46.9492 26.418C47.1602 26.4414 47.3711 26.4531 47.582 26.4531C47.8398 26.4531 48.0977 26.4375 48.3555 26.4062C48.6133 26.375 48.8711 26.3477 49.1289 26.3242C49.2227 26.3086 49.3125 26.3008 49.3984 26.3008C49.4844 26.3008 49.5703 26.293 49.6562 26.2773C49.7656 26.2617 49.8672 26.2109 49.9609 26.125C50.0625 26.0391 50.1602 25.9766 50.2539 25.9375C50.3398 25.9922 50.4414 26.0195 50.5586 26.0195C50.6914 26.0195 50.8203 26 50.9453 25.9609C51.0703 25.9141 51.1992 25.8906 51.332 25.8906H51.3906ZM58.7148 21.2148C58.668 21.2852 58.6406 21.3633 58.6328 21.4492C58.625 21.5352 58.6211 21.6133 58.6211 21.6836C58.6211 21.7773 58.6211 21.8711 58.6211 21.9648C58.6289 22.0508 58.6328 22.1367 58.6328 22.2227V22.3984C58.6172 22.4531 58.5938 22.5078 58.5625 22.5625C58.5312 22.6172 58.5078 22.6719 58.4922 22.7266C58.3828 23.0156 58.3281 23.3047 58.3281 23.5938V23.6172C58.2891 23.7109 58.25 23.7969 58.2109 23.875C58.1797 23.9531 58.1484 24.0312 58.1172 24.1094C58.0859 24.1797 58.0625 24.2578 58.0469 24.3438C58.0312 24.4219 58.0273 24.5156 58.0352 24.625C57.9258 24.8984 57.7812 25.1484 57.6016 25.375C57.4219 25.5938 57.2461 25.8203 57.0742 26.0547C56.9102 26.1172 56.7578 26.1992 56.6172 26.3008C56.4844 26.4023 56.3555 26.5156 56.2305 26.6406C55.9883 26.7188 55.75 26.8086 55.5156 26.9102C55.2812 27.0117 55.0703 27.1484 54.8828 27.3203C54.7344 27.3359 54.5859 27.3594 54.4375 27.3906C54.2891 27.4219 54.1445 27.4688 54.0039 27.5312H53.8633C53.793 27.5312 53.7422 27.5156 53.7109 27.4844C53.6094 27.5391 53.5039 27.5781 53.3945 27.6016C53.2852 27.6172 53.1758 27.625 53.0664 27.625C52.9258 27.625 52.7852 27.6172 52.6445 27.6016C52.5117 27.5781 52.375 27.5547 52.2344 27.5312C52.1562 27.4219 52.0469 27.3398 51.9062 27.2852C51.7656 27.2227 51.6406 27.1641 51.5312 27.1094C51.3047 26.7969 51.1406 26.4961 51.0391 26.207C50.9375 25.9102 50.832 25.5781 50.7227 25.2109C50.7383 25.1016 50.7656 24.9961 50.8047 24.8945C50.8438 24.7852 50.8594 24.668 50.8516 24.543C50.9922 24.1367 51.1758 23.7695 51.4023 23.4414C51.6367 23.1055 51.9023 22.7852 52.1992 22.4805C52.1992 22.4336 52.207 22.3945 52.2227 22.3633C52.2461 22.332 52.25 22.2852 52.2344 22.2227C52.2422 22.2305 52.2578 22.2344 52.2812 22.2344C52.3438 22.2344 52.3828 22.2188 52.3984 22.1875C52.4141 22.1484 52.418 22.1055 52.4102 22.0586C52.6914 21.8789 52.9453 21.6719 53.1719 21.4375C53.4062 21.2031 53.6719 21.0078 53.9688 20.8516C53.9922 20.7812 54.0312 20.7227 54.0859 20.6758C54.1406 20.6289 54.1836 20.5742 54.2148 20.5117C54.4648 20.4414 54.6914 20.3359 54.8945 20.1953C55.0977 20.0547 55.3125 19.9297 55.5391 19.8203C55.6641 19.75 55.7812 19.7031 55.8906 19.6797C56.0078 19.6484 56.1328 19.6172 56.2656 19.5859C56.3125 19.5703 56.3555 19.5586 56.3945 19.5508C56.4336 19.543 56.4766 19.5391 56.5234 19.5391C56.6641 19.5391 56.8008 19.5664 56.9336 19.6211C57.0664 19.668 57.2031 19.6914 57.3438 19.6914C57.3828 19.6914 57.4141 19.6914 57.4375 19.6914C57.4688 19.6836 57.5 19.6758 57.5312 19.668C57.6641 19.832 57.832 19.957 58.0352 20.043C58.082 20.1602 58.1367 20.2617 58.1992 20.3477C58.2695 20.4336 58.3398 20.5195 58.4102 20.6055C58.4805 20.6836 58.543 20.7734 58.5977 20.875C58.6602 20.9688 58.6992 21.082 58.7148 21.2148ZM57.543 21.8242C57.543 21.7852 57.5391 21.75 57.5312 21.7188C57.4531 21.6953 57.3789 21.6641 57.3086 21.625C57.2383 21.5859 57.1602 21.5664 57.0742 21.5664C57.0195 21.5664 56.9648 21.5781 56.9102 21.6016C56.9023 21.5469 56.8789 21.5078 56.8398 21.4844C56.8086 21.4609 56.7695 21.4414 56.7227 21.4258C56.6836 21.4023 56.6406 21.3867 56.5938 21.3789C56.5547 21.3633 56.5195 21.3398 56.4883 21.3086C56.4648 21.2461 56.4375 21.1836 56.4062 21.1211C56.3828 21.0508 56.3359 21 56.2656 20.9688C56.1953 21.0391 56.1133 21.0977 56.0195 21.1445C55.9258 21.1836 55.8281 21.2227 55.7266 21.2617C55.6328 21.3008 55.5391 21.3477 55.4453 21.4023C55.3594 21.457 55.2852 21.5234 55.2227 21.6016H55.0117C54.9648 21.6875 54.8984 21.7539 54.8125 21.8008C54.7266 21.8398 54.6523 21.8984 54.5898 21.9766C54.4648 22.0391 54.3477 22.1172 54.2383 22.2109C54.1367 22.2969 54.0352 22.3906 53.9336 22.4922C53.832 22.5859 53.7305 22.6836 53.6289 22.7852C53.5352 22.8867 53.4336 22.9805 53.3242 23.0664C53.2227 23.2852 53.1094 23.4766 52.9844 23.6406C52.8672 23.7969 52.7539 23.957 52.6445 24.1211C52.543 24.2852 52.4531 24.4648 52.375 24.6602C52.3047 24.8477 52.2695 25.082 52.2695 25.3633V25.4805C52.2695 25.5195 52.2734 25.5586 52.2812 25.5977C52.3828 25.707 52.4648 25.8242 52.5273 25.9492C52.5977 26.0742 52.7109 26.1641 52.8672 26.2188C53.0234 26.2812 53.1875 26.3086 53.3594 26.3008C53.5391 26.293 53.7109 26.3125 53.875 26.3594C54.25 26.2891 54.6094 26.1758 54.9531 26.0195C55.3047 25.8555 55.6367 25.6602 55.9492 25.4336C55.9961 25.3945 56.0508 25.3555 56.1133 25.3164C56.1758 25.2695 56.2266 25.2227 56.2656 25.1758C56.3047 25.1367 56.3359 25.0938 56.3594 25.0469C56.3906 25 56.4219 24.957 56.4531 24.918C56.5156 24.8164 56.5859 24.7148 56.6641 24.6133C56.7422 24.5117 56.8242 24.418 56.9102 24.332C56.9492 24.1602 57 23.9961 57.0625 23.8398C57.125 23.6758 57.1875 23.5156 57.25 23.3594C57.3125 23.2031 57.3633 23.043 57.4023 22.8789C57.4492 22.7148 57.4727 22.543 57.4727 22.3633C57.4727 22.3242 57.4688 22.2812 57.4609 22.2344C57.4609 22.1875 57.457 22.1445 57.4492 22.1055C57.5117 22.0195 57.543 21.9258 57.543 21.8242ZM70.7969 26.5234C70.7578 26.6484 70.7461 26.7734 70.7617 26.8984C70.7383 26.9297 70.7109 26.9492 70.6797 26.957C70.6484 26.9648 70.6172 26.9766 70.5859 26.9922C70.5547 27 70.5273 27.0156 70.5039 27.0391C70.4883 27.0547 70.4883 27.0898 70.5039 27.1445C70.2461 27.1602 70 27.2148 69.7656 27.3086C69.5312 27.4023 69.3008 27.5039 69.0742 27.6133C68.957 27.5742 68.8555 27.5273 68.7695 27.4727C68.6836 27.418 68.5742 27.3828 68.4414 27.3672C68.3086 27.1016 68.1836 26.8242 68.0664 26.5352C67.957 26.2383 67.9023 25.9414 67.9023 25.6445C67.9023 25.4258 67.9414 25.2266 68.0195 25.0469C68.0195 24.8125 68.0391 24.582 68.0781 24.3555C68.1172 24.1289 68.1602 23.9062 68.207 23.6875C68.2617 23.4609 68.3086 23.2344 68.3477 23.0078C68.3867 22.7812 68.4062 22.5508 68.4062 22.3164V22.0586C68.3906 22.0586 68.3711 22.0781 68.3477 22.1172C68.3242 22.1484 68.3008 22.1875 68.2773 22.2344C68.2617 22.2734 68.2461 22.3125 68.2305 22.3516C68.2148 22.3906 68.2031 22.4141 68.1953 22.4219C68.0625 22.5234 67.957 22.6523 67.8789 22.8086C67.8086 22.957 67.7305 23.0977 67.6445 23.2305C67.5352 23.3945 67.418 23.5547 67.293 23.7109C67.1758 23.8672 67.0273 23.9883 66.8477 24.0742V24.0977C66.8477 24.1367 66.8359 24.1641 66.8125 24.1797C66.7891 24.1953 66.7852 24.2344 66.8008 24.2969C66.6055 24.3594 66.4219 24.4492 66.25 24.5664C66.0859 24.6836 65.9492 24.832 65.8398 25.0117C65.6836 25.0508 65.5352 25.1055 65.3945 25.1758C65.2617 25.2383 65.125 25.3086 64.9844 25.3867C64.9219 25.418 64.8555 25.457 64.7852 25.5039C64.7148 25.5508 64.6445 25.582 64.5742 25.5977C64.5117 25.6211 64.4258 25.6367 64.3164 25.6445C64.2148 25.6523 64.1055 25.6602 63.9883 25.668C63.8789 25.6758 63.7695 25.6797 63.6602 25.6797H63.4023C63.3633 25.6797 63.3125 25.6602 63.25 25.6211C63.1875 25.582 63.1172 25.5391 63.0391 25.4922C62.9688 25.4453 62.8945 25.4023 62.8164 25.3633C62.7383 25.3164 62.6641 25.2852 62.5938 25.2695C62.5312 25.0664 62.4414 24.8867 62.3242 24.7305C62.2148 24.5664 62.0977 24.4023 61.9727 24.2383C61.9336 24.0508 61.8789 23.8555 61.8086 23.6523C61.7461 23.4492 61.6328 23.2812 61.4688 23.1484C61.5078 23.0938 61.5273 23.0312 61.5273 22.9609C61.5273 22.875 61.5078 22.793 61.4688 22.7148C61.4297 22.6367 61.4102 22.5508 61.4102 22.457C61.4102 22.3945 61.4141 22.3477 61.4219 22.3164C61.3359 22.4102 61.2734 22.5312 61.2344 22.6797C61.2031 22.8203 61.1875 22.9492 61.1875 23.0664C61.1875 23.1602 61.1992 23.2461 61.2227 23.3242C61.1445 23.4336 61.0938 23.5703 61.0703 23.7344C61.0547 23.8984 61.0469 24.043 61.0469 24.168C61.0469 24.3242 61.0586 24.4766 61.082 24.625C60.957 24.75 60.8945 24.9023 60.8945 25.082C60.8945 25.1836 60.918 25.2734 60.9648 25.3516C60.9648 25.3828 60.957 25.4062 60.9414 25.4219C60.9258 25.4375 60.9062 25.4492 60.8828 25.457C60.8672 25.4648 60.8477 25.4766 60.8242 25.4922C60.8086 25.5 60.8008 25.5195 60.8008 25.5508C60.8008 25.5898 60.8008 25.6328 60.8008 25.6797C60.8086 25.7266 60.8125 25.7734 60.8125 25.8203C60.8125 25.9297 60.8086 26.043 60.8008 26.1602C60.793 26.2773 60.7891 26.3906 60.7891 26.5C60.7891 26.7266 60.8086 26.8906 60.8477 26.9922C60.8945 27.0859 60.9492 27.1562 61.0117 27.2031C61.082 27.25 61.1562 27.2969 61.2344 27.3438C61.3125 27.3906 61.3906 27.4805 61.4688 27.6133C61.4453 27.6836 61.4023 27.7422 61.3398 27.7891C61.2852 27.8281 61.2305 27.8711 61.1758 27.918C61.1289 27.957 61.0859 28.0039 61.0469 28.0586C61.0078 28.1133 60.9922 28.1914 61 28.293H60.9414C60.8398 28.293 60.7422 28.3086 60.6484 28.3398C60.5547 28.3711 60.457 28.3867 60.3555 28.3867C60.332 28.3867 60.3086 28.3828 60.2852 28.375C60.2617 28.375 60.2383 28.375 60.2148 28.375L60.0977 28.3047C60.0586 28.2812 60.0195 28.2695 59.9805 28.2695C59.9414 28.2695 59.8906 28.2773 59.8281 28.293C59.7188 27.9414 59.6328 27.5781 59.5703 27.2031C59.5156 26.8281 59.4883 26.4609 59.4883 26.1016C59.4883 26.0625 59.4961 26.0234 59.5117 25.9844C59.5352 25.9375 59.5664 25.9219 59.6055 25.9375V25.7148C59.6055 25.4727 59.625 25.2383 59.6641 25.0117C59.7109 24.7773 59.7344 24.5352 59.7344 24.2852C59.7344 24.2148 59.7305 24.1445 59.7227 24.0742C59.7227 24.0039 59.7188 23.9375 59.7109 23.875C59.75 23.7422 59.7891 23.6094 59.8281 23.4766C59.875 23.3359 59.8984 23.1914 59.8984 23.043C59.8984 22.9805 59.8867 22.9062 59.8633 22.8203C59.9258 22.7734 59.9727 22.7148 60.0039 22.6445C60.0352 22.5664 60.0586 22.4844 60.0742 22.3984C60.0898 22.3047 60.1016 22.2148 60.1094 22.1289C60.1172 22.043 60.125 21.9648 60.1328 21.8945C60.2109 21.7383 60.2539 21.5703 60.2617 21.3906C60.2695 21.2109 60.3086 21.043 60.3789 20.8867C60.3711 20.8555 60.3672 20.8008 60.3672 20.7227C60.3672 20.5664 60.3906 20.4102 60.4375 20.2539C60.4922 20.0898 60.5977 19.9648 60.7539 19.8789C60.8945 19.9336 61.0586 19.9609 61.2461 19.9609C61.4258 19.9609 61.5977 19.9336 61.7617 19.8789C61.8086 19.8945 61.8516 19.9141 61.8906 19.9375C61.9297 19.9531 61.9688 19.9727 62.0078 19.9961C62.0547 20.0117 62.1016 20.0273 62.1484 20.043C62.1953 20.0508 62.25 20.0508 62.3125 20.043C62.3906 20.2695 62.457 20.5 62.5117 20.7344C62.5742 20.9688 62.6211 21.207 62.6523 21.4492C62.668 21.5508 62.6719 21.6602 62.6641 21.7773C62.6641 21.8945 62.6719 22.0039 62.6875 22.1055C62.6953 22.168 62.7148 22.2266 62.7461 22.2812C62.7773 22.3281 62.8086 22.3828 62.8398 22.4453C62.8711 22.5078 62.8945 22.5781 62.9102 22.6562C62.9336 22.7344 62.9414 22.832 62.9336 22.9492C63.0195 23.1523 63.1133 23.3477 63.2148 23.5352C63.3242 23.7148 63.4414 23.8945 63.5664 24.0742C63.6367 24.0977 63.6992 24.1289 63.7539 24.168C63.8086 24.1992 63.8438 24.2539 63.8594 24.332C63.9297 24.332 63.9922 24.3438 64.0469 24.3672L64.2461 24.4258C64.543 24.332 64.8164 24.207 65.0664 24.0508C65.3242 23.8945 65.5938 23.7617 65.875 23.6523C66.2188 23.3164 66.5156 22.9453 66.7656 22.5391C67.0156 22.125 67.2656 21.7148 67.5156 21.3086V21.0508C67.5625 21.0273 67.6016 21 67.6328 20.9688C67.6719 20.9297 67.7188 20.9023 67.7734 20.8867C67.7812 20.793 67.8008 20.7031 67.832 20.6172C67.8711 20.5234 67.9102 20.4375 67.9492 20.3594C67.9961 20.2734 68.0352 20.1914 68.0664 20.1133C68.0977 20.0273 68.1133 19.9375 68.1133 19.8438C68.1133 19.7891 68.1094 19.7422 68.1016 19.7031C68.2188 19.5859 68.3594 19.5273 68.5234 19.5273C68.6797 19.5273 68.8359 19.5664 68.9922 19.6445C69.1562 19.7148 69.3086 19.7812 69.4492 19.8438C69.5352 20.0312 69.5977 20.2305 69.6367 20.4414C69.6836 20.6445 69.7148 20.8555 69.7305 21.0742C69.7461 21.293 69.7539 21.5117 69.7539 21.7305V22.5625C69.7461 22.625 69.7227 22.6719 69.6836 22.7031C69.6523 22.7266 69.6289 22.7656 69.6133 22.8203V22.9375C69.6133 22.9766 69.6094 23.0156 69.6016 23.0547C69.6016 23.2188 69.582 23.3906 69.543 23.5703C69.5039 23.7969 69.4531 24.0273 69.3906 24.2617C69.3359 24.4883 69.3086 24.7188 69.3086 24.9531C69.3086 25.0391 69.3125 25.125 69.3203 25.2109C69.3281 25.2969 69.3438 25.3828 69.3672 25.4688C69.3281 25.5391 69.3086 25.6289 69.3086 25.7383C69.3086 25.8633 69.3281 25.9805 69.3672 26.0898C69.4141 26.1914 69.4688 26.293 69.5312 26.3945C69.6406 26.3945 69.75 26.3906 69.8594 26.3828C69.9688 26.375 70.082 26.3711 70.1992 26.3711C70.3086 26.3711 70.4102 26.3828 70.5039 26.4062C70.5977 26.4219 70.6953 26.4609 70.7969 26.5234ZM80.8633 20.4297C80.8633 20.4766 80.8398 20.5156 80.793 20.5469C80.7539 20.5781 80.707 20.6094 80.6523 20.6406C80.6055 20.6719 80.5547 20.707 80.5 20.7461C80.4531 20.7852 80.4219 20.832 80.4062 20.8867H80.3008C80.2539 20.8867 80.2305 20.9023 80.2305 20.9336H80.1953C80.125 20.9336 80.0781 20.9141 80.0547 20.875C80.0312 20.8281 79.9805 20.8047 79.9023 20.8047C79.707 20.8047 79.5117 20.8086 79.3164 20.8164C79.1289 20.8164 78.9375 20.8203 78.7422 20.8281C78.2031 20.8281 77.6719 20.8477 77.1484 20.8867C76.6328 20.918 76.1211 21.0273 75.6133 21.2148C75.5977 21.2227 75.5781 21.2266 75.5547 21.2266C75.5156 21.2266 75.4922 21.2109 75.4844 21.1797C75.4844 21.1484 75.4648 21.1328 75.4258 21.1328C75.3164 21.1328 75.2148 21.1445 75.1211 21.168C75.0273 21.1914 74.9258 21.207 74.8164 21.2148C74.6914 21.3242 74.5469 21.4141 74.3828 21.4844C74.2266 21.5547 74.0625 21.625 73.8906 21.6953C73.7266 21.7578 73.5664 21.8281 73.4102 21.9062C73.2539 21.9766 73.1172 22.0703 73 22.1875C73.0156 22.2812 73.0273 22.375 73.0352 22.4688C73.0508 22.5547 73.0586 22.6406 73.0586 22.7266C73.0586 23.0625 73.0273 23.3945 72.9648 23.7227C72.9023 24.043 72.8711 24.3672 72.8711 24.6953V24.8711C72.8711 24.9258 72.875 24.9844 72.8828 25.0469C72.8984 25.0859 72.9258 25.1133 72.9648 25.1289C73.0117 25.1367 73.0508 25.1523 73.082 25.1758C73.1836 25.1055 73.2852 25.0508 73.3867 25.0117C73.4961 24.9648 73.6055 24.9219 73.7148 24.8828C73.832 24.8359 73.9414 24.793 74.043 24.7539C74.1523 24.707 74.2578 24.6523 74.3594 24.5898H74.6875C74.7734 24.5273 74.875 24.4805 74.9922 24.4492C75.1094 24.418 75.1875 24.3477 75.2266 24.2383C75.2422 24.2539 75.2578 24.2617 75.2734 24.2617H75.3203C75.4141 24.2617 75.5078 24.2422 75.6016 24.2031C75.7031 24.1641 75.8047 24.125 75.9062 24.0859C76.0078 24.0391 76.1094 23.9961 76.2109 23.957C76.3125 23.918 76.418 23.8984 76.5273 23.8984C76.5508 23.8984 76.5703 23.9023 76.5859 23.9102C76.6094 23.9102 76.6328 23.9102 76.6562 23.9102C76.7031 23.832 76.7695 23.7734 76.8555 23.7344C76.9414 23.6875 77.0312 23.6484 77.125 23.6172C77.2188 23.5859 77.3125 23.5547 77.4062 23.5234C77.5078 23.4922 77.5938 23.4531 77.6641 23.4062H77.7109C77.7578 23.4062 77.793 23.418 77.8164 23.4414C77.8477 23.457 77.8828 23.4727 77.9219 23.4883C78.1406 23.3477 78.3633 23.2773 78.5898 23.2773C78.8242 23.2695 79.0664 23.2539 79.3164 23.2305C79.3711 23.3242 79.418 23.4023 79.457 23.4648C79.5039 23.5195 79.5273 23.6016 79.5273 23.7109C79.5273 23.7656 79.5234 23.8047 79.5156 23.8281C79.4297 23.8594 79.3633 23.8867 79.3164 23.9102L79.1875 23.9805C79.1484 23.9961 79.1016 24.0117 79.0469 24.0273C78.9922 24.0352 78.9141 24.0391 78.8125 24.0391C78.75 24.0391 78.7227 24.0586 78.7305 24.0977C78.7383 24.1289 78.7188 24.1484 78.6719 24.1562C78.5625 24.1953 78.4531 24.2266 78.3438 24.25C78.2344 24.2734 78.125 24.3047 78.0156 24.3438C77.7891 24.4141 77.5625 24.4922 77.3359 24.5781C77.1172 24.6562 76.8906 24.7188 76.6562 24.7656C76.4609 24.9219 76.25 25.0508 76.0234 25.1523C75.7969 25.2461 75.5625 25.3242 75.3203 25.3867C75.0625 25.5742 74.8086 25.75 74.5586 25.9141C74.3086 26.0703 74.0273 26.2031 73.7148 26.3125C73.6758 26.3516 73.6289 26.3867 73.5742 26.418C73.5195 26.4492 73.4844 26.4961 73.4688 26.5586C73.4531 26.5586 73.4336 26.5586 73.4102 26.5586C73.3945 26.5508 73.375 26.5469 73.3516 26.5469C73.2422 26.5469 73.1562 26.5742 73.0938 26.6289C73.0391 26.6758 72.9688 26.707 72.8828 26.7227C72.8438 26.8398 72.8242 26.9414 72.8242 27.0273C72.8242 27.1367 72.8438 27.2344 72.8828 27.3203C72.9219 27.4062 72.9688 27.4883 73.0234 27.5664C73.0859 27.6445 73.1484 27.7227 73.2109 27.8008C73.2812 27.8711 73.3398 27.9492 73.3867 28.0352C73.3711 28.1289 73.3398 28.2031 73.293 28.2578C73.2539 28.3203 73.207 28.375 73.1523 28.4219C73.0977 28.4766 73.043 28.5312 72.9883 28.5859C72.9414 28.6406 72.9062 28.7109 72.8828 28.7969C72.7422 28.8203 72.6055 28.832 72.4727 28.832C72.3867 28.832 72.2969 28.8203 72.2031 28.7969C72.1172 28.7812 72.0352 28.75 71.957 28.7031C71.832 28.5312 71.7422 28.3477 71.6875 28.1523C71.6406 27.957 71.5742 27.7617 71.4883 27.5664L71.5 27.4844C71.5 27.3125 71.4688 27.1641 71.4062 27.0391C71.3516 26.9062 71.2656 26.7734 71.1484 26.6406C71.1562 26.625 71.1602 26.5977 71.1602 26.5586C71.1602 26.457 71.1289 26.3633 71.0664 26.2773C71.082 26.0977 71.1289 25.957 71.207 25.8555C71.293 25.7539 71.3867 25.6406 71.4883 25.5156V25.375C71.4883 25.0391 71.5156 24.7109 71.5703 24.3906C71.6328 24.0625 71.6641 23.7344 71.6641 23.4062C71.6641 23.2031 71.6484 23.0234 71.6172 22.8672C71.5938 22.8594 71.5625 22.8555 71.5234 22.8555C71.4844 22.8555 71.4531 22.8672 71.4297 22.8906C71.4062 22.9062 71.3867 22.9258 71.3711 22.9492C71.3555 22.9727 71.3359 22.9961 71.3125 23.0195C71.2969 23.043 71.2695 23.0586 71.2305 23.0664C71.0977 23.043 71.0117 22.9805 70.9727 22.8789C70.9336 22.7773 70.9141 22.6641 70.9141 22.5391C70.9141 22.4688 70.918 22.3984 70.9258 22.3281C70.9336 22.2578 70.9414 22.1836 70.9492 22.1055C71.2461 21.7773 71.6016 21.4727 72.0156 21.1914C72.4297 20.9102 72.8398 20.6836 73.2461 20.5117C73.2695 20.5039 73.2969 20.5 73.3281 20.5C73.3594 20.5 73.3867 20.5078 73.4102 20.5234C73.4336 20.5312 73.4609 20.5352 73.4922 20.5352C73.5156 20.5352 73.5352 20.5273 73.5508 20.5117C73.6289 20.5117 73.6836 20.4883 73.7148 20.4414C73.7461 20.3945 73.7891 20.3477 73.8438 20.3008C73.8984 20.3398 73.9453 20.3594 73.9844 20.3594C74.0625 20.3594 74.1406 20.3242 74.2188 20.2539C74.2969 20.1836 74.3828 20.1406 74.4766 20.125C74.8359 20.0625 75.1875 20.0117 75.5312 19.9727C75.8828 19.9336 76.2305 19.8438 76.5742 19.7031C76.6523 19.7422 76.7305 19.7656 76.8086 19.7734C76.8867 19.7812 76.9648 19.7852 77.043 19.7852C77.1289 19.7852 77.2227 19.7773 77.3242 19.7617C77.4336 19.7383 77.5195 19.6914 77.582 19.6211C77.832 19.6523 78.0977 19.6641 78.3789 19.6562C78.668 19.6484 78.9531 19.6523 79.2344 19.668C79.5234 19.6836 79.8008 19.7227 80.0664 19.7852C80.332 19.8477 80.5664 19.9609 80.7695 20.125C80.7852 20.1797 80.8047 20.2305 80.8281 20.2773C80.8516 20.3242 80.8633 20.375 80.8633 20.4297ZM87.5898 21.2148C87.543 21.2852 87.5156 21.3633 87.5078 21.4492C87.5 21.5352 87.4961 21.6133 87.4961 21.6836C87.4961 21.7773 87.4961 21.8711 87.4961 21.9648C87.5039 22.0508 87.5078 22.1367 87.5078 22.2227V22.3984C87.4922 22.4531 87.4688 22.5078 87.4375 22.5625C87.4062 22.6172 87.3828 22.6719 87.3672 22.7266C87.2578 23.0156 87.2031 23.3047 87.2031 23.5938V23.6172C87.1641 23.7109 87.125 23.7969 87.0859 23.875C87.0547 23.9531 87.0234 24.0312 86.9922 24.1094C86.9609 24.1797 86.9375 24.2578 86.9219 24.3438C86.9062 24.4219 86.9023 24.5156 86.9102 24.625C86.8008 24.8984 86.6562 25.1484 86.4766 25.375C86.2969 25.5938 86.1211 25.8203 85.9492 26.0547C85.7852 26.1172 85.6328 26.1992 85.4922 26.3008C85.3594 26.4023 85.2305 26.5156 85.1055 26.6406C84.8633 26.7188 84.625 26.8086 84.3906 26.9102C84.1562 27.0117 83.9453 27.1484 83.7578 27.3203C83.6094 27.3359 83.4609 27.3594 83.3125 27.3906C83.1641 27.4219 83.0195 27.4688 82.8789 27.5312H82.7383C82.668 27.5312 82.6172 27.5156 82.5859 27.4844C82.4844 27.5391 82.3789 27.5781 82.2695 27.6016C82.1602 27.6172 82.0508 27.625 81.9414 27.625C81.8008 27.625 81.6602 27.6172 81.5195 27.6016C81.3867 27.5781 81.25 27.5547 81.1094 27.5312C81.0312 27.4219 80.9219 27.3398 80.7812 27.2852C80.6406 27.2227 80.5156 27.1641 80.4062 27.1094C80.1797 26.7969 80.0156 26.4961 79.9141 26.207C79.8125 25.9102 79.707 25.5781 79.5977 25.2109C79.6133 25.1016 79.6406 24.9961 79.6797 24.8945C79.7188 24.7852 79.7344 24.668 79.7266 24.543C79.8672 24.1367 80.0508 23.7695 80.2773 23.4414C80.5117 23.1055 80.7773 22.7852 81.0742 22.4805C81.0742 22.4336 81.082 22.3945 81.0977 22.3633C81.1211 22.332 81.125 22.2852 81.1094 22.2227C81.1172 22.2305 81.1328 22.2344 81.1562 22.2344C81.2188 22.2344 81.2578 22.2188 81.2734 22.1875C81.2891 22.1484 81.293 22.1055 81.2852 22.0586C81.5664 21.8789 81.8203 21.6719 82.0469 21.4375C82.2812 21.2031 82.5469 21.0078 82.8438 20.8516C82.8672 20.7812 82.9062 20.7227 82.9609 20.6758C83.0156 20.6289 83.0586 20.5742 83.0898 20.5117C83.3398 20.4414 83.5664 20.3359 83.7695 20.1953C83.9727 20.0547 84.1875 19.9297 84.4141 19.8203C84.5391 19.75 84.6562 19.7031 84.7656 19.6797C84.8828 19.6484 85.0078 19.6172 85.1406 19.5859C85.1875 19.5703 85.2305 19.5586 85.2695 19.5508C85.3086 19.543 85.3516 19.5391 85.3984 19.5391C85.5391 19.5391 85.6758 19.5664 85.8086 19.6211C85.9414 19.668 86.0781 19.6914 86.2188 19.6914C86.2578 19.6914 86.2891 19.6914 86.3125 19.6914C86.3438 19.6836 86.375 19.6758 86.4062 19.668C86.5391 19.832 86.707 19.957 86.9102 20.043C86.957 20.1602 87.0117 20.2617 87.0742 20.3477C87.1445 20.4336 87.2148 20.5195 87.2852 20.6055C87.3555 20.6836 87.418 20.7734 87.4727 20.875C87.5352 20.9688 87.5742 21.082 87.5898 21.2148ZM86.418 21.8242C86.418 21.7852 86.4141 21.75 86.4062 21.7188C86.3281 21.6953 86.2539 21.6641 86.1836 21.625C86.1133 21.5859 86.0352 21.5664 85.9492 21.5664C85.8945 21.5664 85.8398 21.5781 85.7852 21.6016C85.7773 21.5469 85.7539 21.5078 85.7148 21.4844C85.6836 21.4609 85.6445 21.4414 85.5977 21.4258C85.5586 21.4023 85.5156 21.3867 85.4688 21.3789C85.4297 21.3633 85.3945 21.3398 85.3633 21.3086C85.3398 21.2461 85.3125 21.1836 85.2812 21.1211C85.2578 21.0508 85.2109 21 85.1406 20.9688C85.0703 21.0391 84.9883 21.0977 84.8945 21.1445C84.8008 21.1836 84.7031 21.2227 84.6016 21.2617C84.5078 21.3008 84.4141 21.3477 84.3203 21.4023C84.2344 21.457 84.1602 21.5234 84.0977 21.6016H83.8867C83.8398 21.6875 83.7734 21.7539 83.6875 21.8008C83.6016 21.8398 83.5273 21.8984 83.4648 21.9766C83.3398 22.0391 83.2227 22.1172 83.1133 22.2109C83.0117 22.2969 82.9102 22.3906 82.8086 22.4922C82.707 22.5859 82.6055 22.6836 82.5039 22.7852C82.4102 22.8867 82.3086 22.9805 82.1992 23.0664C82.0977 23.2852 81.9844 23.4766 81.8594 23.6406C81.7422 23.7969 81.6289 23.957 81.5195 24.1211C81.418 24.2852 81.3281 24.4648 81.25 24.6602C81.1797 24.8477 81.1445 25.082 81.1445 25.3633V25.4805C81.1445 25.5195 81.1484 25.5586 81.1562 25.5977C81.2578 25.707 81.3398 25.8242 81.4023 25.9492C81.4727 26.0742 81.5859 26.1641 81.7422 26.2188C81.8984 26.2812 82.0625 26.3086 82.2344 26.3008C82.4141 26.293 82.5859 26.3125 82.75 26.3594C83.125 26.2891 83.4844 26.1758 83.8281 26.0195C84.1797 25.8555 84.5117 25.6602 84.8242 25.4336C84.8711 25.3945 84.9258 25.3555 84.9883 25.3164C85.0508 25.2695 85.1016 25.2227 85.1406 25.1758C85.1797 25.1367 85.2109 25.0938 85.2344 25.0469C85.2656 25 85.2969 24.957 85.3281 24.918C85.3906 24.8164 85.4609 24.7148 85.5391 24.6133C85.6172 24.5117 85.6992 24.418 85.7852 24.332C85.8242 24.1602 85.875 23.9961 85.9375 23.8398C86 23.6758 86.0625 23.5156 86.125 23.3594C86.1875 23.2031 86.2383 23.043 86.2773 22.8789C86.3242 22.7148 86.3477 22.543 86.3477 22.3633C86.3477 22.3242 86.3438 22.2812 86.3359 22.2344C86.3359 22.1875 86.332 22.1445 86.3242 22.1055C86.3867 22.0195 86.418 21.9258 86.418 21.8242ZM103.387 25.9609C103.371 26.0781 103.328 26.168 103.258 26.2305C103.195 26.293 103.121 26.3516 103.035 26.4062C102.996 26.3984 102.957 26.3945 102.918 26.3945C102.887 26.3867 102.852 26.3828 102.812 26.3828C102.57 26.375 102.34 26.4062 102.121 26.4766C101.91 26.5469 101.691 26.5977 101.465 26.6289C101.387 26.6445 101.312 26.6523 101.242 26.6523C101.18 26.6445 101.113 26.6484 101.043 26.6641C100.793 26.7031 100.527 26.7344 100.246 26.7578C99.9648 26.7812 99.6836 26.8125 99.4023 26.8516C99.1211 26.8828 98.8438 26.9258 98.5703 26.9805C98.3047 27.0273 98.0547 27.0977 97.8203 27.1914C97.7969 27.1758 97.7734 27.1602 97.75 27.1445C97.7266 27.1211 97.6992 27.1094 97.668 27.1094C97.5898 27.1094 97.5156 27.1211 97.4453 27.1445C97.375 27.168 97.3047 27.1758 97.2344 27.168C97.1562 27.2148 97.0703 27.25 96.9766 27.2734C96.8906 27.2891 96.8008 27.3047 96.707 27.3203C96.6211 27.3281 96.5352 27.3438 96.4492 27.3672C96.3633 27.3906 96.2812 27.4336 96.2031 27.4961C96.1406 27.4648 96.0625 27.4492 95.9688 27.4492C95.8828 27.4414 95.8242 27.4102 95.793 27.3555C95.6133 27.4414 95.4219 27.4961 95.2188 27.5195C95.0234 27.543 94.8242 27.5508 94.6211 27.543C94.4883 27.5352 94.3359 27.5156 94.1641 27.4844C93.9922 27.4531 93.8203 27.4102 93.6484 27.3555C93.4766 27.293 93.3164 27.2227 93.168 27.1445C93.0195 27.0586 92.9062 26.957 92.8281 26.8398C92.7734 26.7617 92.7344 26.6758 92.7109 26.582C92.6875 26.4883 92.6328 26.418 92.5469 26.3711C92.5703 26.1914 92.5977 26.0156 92.6289 25.8438C92.6602 25.6719 92.6914 25.4961 92.7227 25.3164C92.8789 25.1836 93.0273 25.043 93.168 24.8945C93.3086 24.7461 93.4414 24.5898 93.5664 24.4258C93.7148 24.3555 93.8516 24.2695 93.9766 24.168C94.1094 24.0664 94.2383 23.9648 94.3633 23.8633C94.4961 23.7539 94.625 23.6484 94.75 23.5469C94.8828 23.4453 95.0234 23.3555 95.1719 23.2773C95.1953 23.2227 95.2266 23.1797 95.2656 23.1484C95.3125 23.1094 95.3594 23.0742 95.4062 23.043C95.4531 23.0039 95.4961 22.9648 95.5352 22.9258C95.5742 22.8789 95.6016 22.8242 95.6172 22.7617C95.8906 22.5977 96.1289 22.3906 96.332 22.1406C96.5352 21.8906 96.668 21.6094 96.7305 21.2969C96.5977 21.1875 96.4453 21.1172 96.2734 21.0859C96.1094 21.0469 95.9375 21.0195 95.7578 21.0039C95.6016 20.9961 95.4375 20.9961 95.2656 21.0039C95.1016 21.0117 94.9336 21.0078 94.7617 20.9922C94.5898 21.0469 94.4102 21.082 94.2227 21.0977C94.043 21.1133 93.8633 21.1289 93.6836 21.1445C93.5039 21.1523 93.3242 21.1758 93.1445 21.2148C92.9727 21.2461 92.8047 21.3086 92.6406 21.4023C92.6094 21.4023 92.5781 21.3984 92.5469 21.3906C92.5234 21.3828 92.4961 21.3789 92.4648 21.3789C92.2148 21.3711 91.9805 21.4219 91.7617 21.5312C91.543 21.6328 91.3281 21.7344 91.1172 21.8359C91.1016 21.8672 91.0938 21.8906 91.0938 21.9062C91.0938 21.9531 91.1016 22 91.1172 22.0469C91.1406 22.0859 91.1523 22.1289 91.1523 22.1758C91.1445 22.1836 91.1406 22.1914 91.1406 22.1992C91.1406 22.207 91.1367 22.2148 91.1289 22.2227C91.1211 22.2617 91.1094 22.2969 91.0938 22.3281C91.0859 22.3594 91.0742 22.3945 91.0586 22.4336C90.9727 22.6836 90.9258 22.9297 90.918 23.1719C90.9102 23.375 90.9102 23.5742 90.918 23.7695C90.9258 23.9648 90.9258 24.1641 90.918 24.3672C90.9023 24.6172 90.8633 24.8516 90.8008 25.0703C90.8398 25.2578 90.875 25.457 90.9062 25.668C90.9375 25.8711 90.9766 26.0742 91.0234 26.2773C91.0703 26.4805 91.125 26.6797 91.1875 26.875C91.2578 27.0625 91.3477 27.2422 91.457 27.4141C91.4492 27.4297 91.4531 27.4414 91.4688 27.4492C91.4844 27.457 91.5 27.4609 91.5156 27.4609H91.6094C91.6484 27.4609 91.6641 27.4766 91.6562 27.5078C91.6719 27.5312 91.6836 27.5547 91.6914 27.5781C91.6992 27.5938 91.7148 27.6094 91.7383 27.625C91.7539 27.6484 91.7539 27.6797 91.7383 27.7188C91.7305 27.875 91.6914 28.0195 91.6211 28.1523C91.5508 28.2852 91.5078 28.4297 91.4922 28.5859C91.3984 28.6094 91.3125 28.6211 91.2344 28.6211C91.1016 28.6133 90.9844 28.5742 90.8828 28.5039C90.7812 28.4414 90.6875 28.3633 90.6016 28.2695C90.5156 28.1758 90.4336 28.082 90.3555 27.9883C90.2773 27.8867 90.1914 27.8008 90.0977 27.7305C90.043 27.5117 89.9883 27.2695 89.9336 27.0039C89.8867 26.7383 89.8047 26.5117 89.6875 26.3242C89.7188 26.2539 89.7344 26.168 89.7344 26.0664C89.7422 25.9102 89.7266 25.7578 89.6875 25.6094C89.6562 25.4531 89.6484 25.2969 89.6641 25.1406C89.6641 25.0547 89.6719 24.9688 89.6875 24.8828C89.7109 24.7969 89.7266 24.7109 89.7344 24.625C89.7422 24.4922 89.7266 24.3633 89.6875 24.2383C89.6562 24.1133 89.6445 23.9844 89.6523 23.8516C89.6602 23.7891 89.6719 23.7305 89.6875 23.6758C89.7109 23.6133 89.7422 23.5586 89.7812 23.5117C89.7422 23.418 89.7305 23.3281 89.7461 23.2422C89.7539 23.1094 89.7695 22.9844 89.793 22.8672C89.8164 22.75 89.832 22.6328 89.8398 22.5156C89.8398 22.4531 89.8359 22.3945 89.8281 22.3398C89.8203 22.2773 89.8086 22.2188 89.793 22.1641L89.6875 22.1289C89.6406 22.1289 89.5938 22.1406 89.5469 22.1641C89.5078 22.1875 89.4727 22.2148 89.4414 22.2461C89.4102 22.2773 89.3828 22.3047 89.3594 22.3281C89.3359 22.3438 89.3125 22.3516 89.2891 22.3516C89.2734 22.3516 89.2539 22.3516 89.2305 22.3516C89.2148 22.3438 89.1992 22.3398 89.1836 22.3398C89.168 22.3398 89.1367 22.3555 89.0898 22.3867C89.0508 22.418 89 22.4531 88.9375 22.4922C88.8828 22.5234 88.8281 22.5586 88.7734 22.5977C88.7188 22.6289 88.6758 22.6484 88.6445 22.6562C88.5586 22.6406 88.4883 22.6133 88.4336 22.5742C88.3867 22.5273 88.3398 22.4844 88.293 22.4453C88.2539 22.3984 88.2109 22.3594 88.1641 22.3281C88.1172 22.2891 88.0586 22.2734 87.9883 22.2812C87.9648 22.2344 87.9531 22.1836 87.9531 22.1289C87.9453 22.0742 87.9453 22.0195 87.9531 21.9648V21.7773C88.0078 21.6758 88.082 21.5938 88.1758 21.5312C88.2617 21.4609 88.3555 21.4023 88.457 21.3555L88.7617 21.2148C88.8633 21.168 88.957 21.1094 89.043 21.0391H89.1484C89.2891 21.0469 89.4102 21.0195 89.5117 20.957C89.6211 20.8945 89.7227 20.8242 89.8164 20.7461C89.9102 20.6602 90.0039 20.5742 90.0977 20.4883C90.1992 20.4023 90.3086 20.3359 90.4258 20.2891C90.5117 20.3281 90.6016 20.3633 90.6953 20.3945C90.7891 20.418 90.8867 20.4336 90.9883 20.4414C91.0898 20.4414 91.1953 20.4258 91.3047 20.3945C91.4141 20.3633 91.5 20.3047 91.5625 20.2188C91.6016 20.2344 91.6328 20.2461 91.6562 20.2539C91.6875 20.2539 91.7227 20.2539 91.7617 20.2539C91.8789 20.2617 91.9961 20.2461 92.1133 20.207C92.2305 20.1602 92.3438 20.1055 92.4531 20.043C92.6094 20.0508 92.7617 20.043 92.9102 20.0195C93.0664 19.9883 93.2188 19.957 93.3672 19.9258C93.5234 19.8945 93.6758 19.8672 93.8242 19.8438C93.9805 19.8125 94.1367 19.8008 94.293 19.8086C94.5508 19.8164 94.8047 19.793 95.0547 19.7383C95.3047 19.6836 95.5586 19.6641 95.8164 19.6797C95.9961 19.6875 96.1719 19.7031 96.3438 19.7266C96.5234 19.7422 96.7031 19.7461 96.8828 19.7383C96.9844 19.7852 97.0742 19.8281 97.1523 19.8672C97.2383 19.8984 97.3438 19.9062 97.4688 19.8906C97.7188 20.1016 97.9453 20.3477 98.1484 20.6289V20.8281C98.1406 21.0078 98.1094 21.1836 98.0547 21.3555C98 21.5273 97.9336 21.6992 97.8555 21.8711C97.7852 22.0352 97.707 22.1992 97.6211 22.3633C97.5352 22.5195 97.4531 22.6758 97.375 22.832C96.8672 23.293 96.3594 23.75 95.8516 24.2031C95.3438 24.6562 94.8203 25.0938 94.2812 25.5156C94.2656 25.5938 94.2422 25.6641 94.2109 25.7266C94.1875 25.7891 94.1719 25.8555 94.1641 25.9258C94.1641 25.9648 94.168 25.9961 94.1758 26.0195C94.2305 26.0352 94.2773 26.0664 94.3164 26.1133C94.3633 26.1523 94.3789 26.207 94.3633 26.2773H94.4688C94.5078 26.2773 94.5273 26.293 94.5273 26.3242L94.7148 26.3359C95.0117 26.3516 95.3086 26.3438 95.6055 26.3125C95.9023 26.2812 96.1992 26.2461 96.4961 26.207C96.8008 26.168 97.1016 26.1328 97.3984 26.1016C97.6953 26.0625 97.9922 26.0391 98.2891 26.0312C98.3594 26.0078 98.4336 25.9883 98.5117 25.9727C98.5898 25.957 98.6602 25.9258 98.7227 25.8789H98.7578C98.8125 25.8789 98.8516 25.8945 98.875 25.9258C98.9062 25.957 98.9492 25.9766 99.0039 25.9844C99.043 25.9844 99.082 25.9766 99.1211 25.9609C99.168 25.9453 99.2148 25.9336 99.2617 25.9258C99.3711 25.8945 99.4844 25.875 99.6016 25.8672C99.7266 25.8594 99.8477 25.8477 99.9648 25.832C100.418 25.793 100.867 25.7695 101.312 25.7617C101.758 25.7461 102.203 25.6875 102.648 25.5859C102.688 25.6406 102.742 25.6797 102.812 25.7031C102.883 25.7188 102.957 25.7383 103.035 25.7617C103.113 25.7773 103.184 25.7969 103.246 25.8203C103.316 25.8438 103.363 25.8906 103.387 25.9609ZM109.914 20.4648C109.883 20.5664 109.832 20.6602 109.762 20.7461L109.562 20.9922C109.5 21.0703 109.445 21.1562 109.398 21.25C109.359 21.3359 109.348 21.4375 109.363 21.5547C109.348 21.5547 109.328 21.5547 109.305 21.5547C109.281 21.5469 109.262 21.543 109.246 21.543C109.121 21.543 109.023 21.5742 108.953 21.6367C108.891 21.6914 108.805 21.7383 108.695 21.7773C108.68 21.7305 108.66 21.6875 108.637 21.6484C108.613 21.6016 108.578 21.5703 108.531 21.5547C108.344 21.5938 108.156 21.625 107.969 21.6484C107.781 21.6641 107.594 21.6875 107.406 21.7188C107.32 21.7344 107.234 21.7578 107.148 21.7891C107.062 21.8125 106.973 21.8359 106.879 21.8594C106.832 21.875 106.781 21.8828 106.727 21.8828C106.672 21.875 106.617 21.875 106.562 21.8828C106.375 21.8906 106.172 21.9062 105.953 21.9297C105.734 21.9453 105.539 22.0039 105.367 22.1055C105.289 22.0898 105.207 22.0781 105.121 22.0703C105.035 22.0625 104.949 22.0586 104.863 22.0586C104.676 22.0586 104.469 22.0781 104.242 22.1172C104.023 22.1484 103.828 22.2148 103.656 22.3164C103.617 22.3008 103.574 22.2891 103.527 22.2812C103.488 22.2734 103.441 22.2695 103.387 22.2695C103.371 22.2695 103.359 22.2734 103.352 22.2812C103.344 22.2812 103.332 22.2812 103.316 22.2812C103.309 22.3516 103.316 22.4219 103.34 22.4922C103.371 22.5547 103.422 22.6055 103.492 22.6445C103.461 22.7305 103.445 22.8242 103.445 22.9258C103.445 23.0586 103.453 23.1914 103.469 23.3242C103.492 23.457 103.504 23.5898 103.504 23.7227C103.504 23.8711 103.484 23.9883 103.445 24.0742C103.523 24.3086 103.562 24.5586 103.562 24.8242C103.562 24.918 103.555 25.0117 103.539 25.1055C103.531 25.1914 103.527 25.2852 103.527 25.3867C103.527 25.4727 103.559 25.543 103.621 25.5977C103.684 25.6445 103.715 25.7109 103.715 25.7969C103.715 25.8281 103.707 25.8594 103.691 25.8906C103.801 25.8672 103.906 25.8359 104.008 25.7969C104.109 25.75 104.215 25.7266 104.324 25.7266C104.387 25.7266 104.445 25.7383 104.5 25.7617C104.562 25.7852 104.617 25.8164 104.664 25.8555C104.656 25.8945 104.648 25.9375 104.641 25.9844C104.641 26.0312 104.641 26.0781 104.641 26.125C104.641 26.2109 104.641 26.293 104.641 26.3711C104.648 26.4414 104.656 26.5195 104.664 26.6055C104.602 26.7148 104.527 26.8125 104.441 26.8984C104.363 26.9844 104.309 27.0938 104.277 27.2266C104.16 27.2266 104.055 27.2539 103.961 27.3086C103.875 27.3555 103.793 27.4102 103.715 27.4727C103.637 27.5273 103.559 27.582 103.48 27.6367C103.402 27.6836 103.316 27.707 103.223 27.707C103.105 27.707 103.023 27.6914 102.977 27.6602C102.93 27.6211 102.895 27.582 102.871 27.543C102.848 27.5039 102.824 27.4688 102.801 27.4375C102.785 27.4062 102.746 27.3945 102.684 27.4023C102.668 27.3008 102.637 27.207 102.59 27.1211C102.543 27.0273 102.492 26.9375 102.438 26.8516C102.391 26.7656 102.34 26.6797 102.285 26.5938C102.238 26.5 102.203 26.4062 102.18 26.3125C102.133 26.1094 102.113 25.8984 102.121 25.6797C102.129 25.4609 102.094 25.25 102.016 25.0469C102.031 24.9375 102.043 24.8281 102.051 24.7188C102.059 24.6016 102.062 24.4883 102.062 24.3789C102.062 24.1602 102.055 23.9453 102.039 23.7344C102.031 23.5156 102.023 23.293 102.016 23.0664C101.961 22.9961 101.926 22.918 101.91 22.832C101.902 22.7383 101.895 22.6484 101.887 22.5625C101.863 22.5391 101.836 22.5156 101.805 22.4922C101.781 22.4688 101.766 22.4375 101.758 22.3984C101.695 22.3828 101.648 22.375 101.617 22.375C101.508 22.375 101.414 22.4023 101.336 22.457C101.266 22.5039 101.199 22.5273 101.137 22.5273C101.074 22.5273 101.016 22.5195 100.961 22.5039C100.906 22.4883 100.852 22.4805 100.797 22.4805C100.75 22.4805 100.723 22.4922 100.715 22.5156C100.715 22.5312 100.699 22.5469 100.668 22.5625C100.645 22.5781 100.59 22.5938 100.504 22.6094C100.418 22.625 100.32 22.6406 100.211 22.6562C100.109 22.6641 100.008 22.6719 99.9062 22.6797C99.8125 22.6875 99.75 22.6914 99.7188 22.6914C99.5938 22.6914 99.5 22.668 99.4375 22.6211C99.3672 22.5664 99.2852 22.5078 99.1914 22.4453C99.207 22.3984 99.2148 22.3672 99.2148 22.3516C99.2148 22.2734 99.1914 22.2109 99.1445 22.1641C99.0977 22.1094 99.0742 22.0625 99.0742 22.0234C99.0742 21.9375 99.1094 21.8711 99.1797 21.8242C99.2422 21.7773 99.2773 21.7031 99.2852 21.6016C99.4648 21.5234 99.6484 21.4648 99.8359 21.4258C100.023 21.3867 100.215 21.3555 100.41 21.332C100.605 21.3086 100.797 21.2812 100.984 21.25C101.18 21.2188 101.371 21.168 101.559 21.0977C101.613 21.1055 101.664 21.1133 101.711 21.1211C101.766 21.1211 101.82 21.1211 101.875 21.1211C102.109 21.1211 102.34 21.0977 102.566 21.0508C102.801 20.9961 103.039 20.9688 103.281 20.9688C103.344 20.9688 103.406 20.9727 103.469 20.9805C103.531 20.9883 103.594 21 103.656 21.0156C103.969 20.9688 104.277 20.918 104.582 20.8633C104.895 20.8086 105.215 20.7617 105.543 20.7227C105.699 20.707 105.852 20.6953 106 20.6875C106.156 20.6719 106.312 20.6523 106.469 20.6289C106.523 20.6211 106.562 20.6094 106.586 20.5938C106.617 20.5703 106.633 20.5273 106.633 20.4648C106.703 20.4961 106.781 20.5117 106.867 20.5117C107 20.5117 107.129 20.4883 107.254 20.4414C107.379 20.3945 107.508 20.3711 107.641 20.3711C107.672 20.3711 107.699 20.375 107.723 20.3828C107.746 20.3828 107.77 20.3828 107.793 20.3828C107.848 20.3828 107.875 20.3594 107.875 20.3125C107.883 20.2578 107.922 20.2227 107.992 20.207C108.047 20.1914 108.125 20.1797 108.227 20.1719C108.328 20.1641 108.434 20.1562 108.543 20.1484C108.66 20.1328 108.766 20.1172 108.859 20.1016C108.961 20.0781 109.035 20.0469 109.082 20.0078L109.164 19.8789C109.305 19.8867 109.406 19.9492 109.469 20.0664C109.539 20.1758 109.578 20.2969 109.586 20.4297C109.617 20.4609 109.66 20.4766 109.715 20.4766C109.777 20.4688 109.832 20.4648 109.879 20.4648H109.914ZM125.84 21.1211C125.84 21.2461 125.816 21.375 125.77 21.5078C125.73 21.6406 125.68 21.7617 125.617 21.8711C125.516 21.8867 125.422 21.9219 125.336 21.9766C125.258 22.0312 125.195 22.0664 125.148 22.082C125.047 22.0977 124.926 22.1055 124.785 22.1055C124.652 22.0977 124.531 22.0977 124.422 22.1055C124.211 22.1211 124 22.1445 123.789 22.1758C123.586 22.207 123.383 22.2461 123.18 22.293C123.164 22.293 123.148 22.2969 123.133 22.3047C123.117 22.3047 123.109 22.3125 123.109 22.3281C123.109 22.3438 123.113 22.3594 123.121 22.375C123.129 22.3906 123.133 22.4062 123.133 22.4219C123.133 22.4453 123.109 22.457 123.062 22.457C122.977 22.457 122.918 22.4297 122.887 22.375C122.637 22.4375 122.387 22.5039 122.137 22.5742C121.887 22.6367 121.637 22.6992 121.387 22.7617C121.262 22.7852 121.137 22.8086 121.012 22.832C120.895 22.8555 120.773 22.8867 120.648 22.9258C120.586 22.9414 120.523 22.9688 120.461 23.0078L120.273 23.125C120.234 23.1172 120.199 23.1133 120.168 23.1133C120.137 23.1055 120.105 23.1016 120.074 23.1016C119.941 23.1016 119.801 23.1289 119.652 23.1836C119.504 23.2305 119.375 23.2969 119.266 23.3828H119.184C119.105 23.3828 119.051 23.3711 119.02 23.3477C118.949 23.3398 118.906 23.3633 118.891 23.418C118.875 23.4648 118.848 23.5078 118.809 23.5469C118.543 23.5703 118.281 23.6172 118.023 23.6875C117.766 23.7578 117.512 23.8359 117.262 23.9219C117.012 24 116.758 24.082 116.5 24.168C116.25 24.2461 115.996 24.3086 115.738 24.3555C115.707 24.5117 115.691 24.6914 115.691 24.8945C115.691 25.0508 115.703 25.2305 115.727 25.4336C115.758 25.6367 115.82 25.8086 115.914 25.9492V25.9727C115.914 26.0117 115.898 26.0391 115.867 26.0547C115.836 26.0703 115.82 26.0977 115.82 26.1367C115.82 26.3398 115.84 26.5312 115.879 26.7109C115.926 26.8906 115.973 27.0664 116.02 27.2383C116.066 27.4102 116.109 27.582 116.148 27.7539C116.195 27.9258 116.219 28.1016 116.219 28.2812C116.219 28.3281 116.215 28.3711 116.207 28.4102C116.207 28.457 116.203 28.5039 116.195 28.5508C116.219 28.6211 116.258 28.6797 116.312 28.7266C116.367 28.7734 116.414 28.8281 116.453 28.8906C116.461 28.9297 116.465 28.9648 116.465 28.9961V29.1133C116.465 29.2461 116.449 29.3633 116.418 29.4648C116.387 29.5664 116.348 29.6602 116.301 29.7461C116.254 29.8398 116.203 29.9297 116.148 30.0156C116.094 30.1094 116.043 30.2109 115.996 30.3203C115.918 30.3359 115.855 30.3438 115.809 30.3438C115.691 30.3438 115.594 30.3125 115.516 30.25C115.445 30.1875 115.383 30.1094 115.328 30.0156C115.273 29.9297 115.219 29.8398 115.164 29.7461C115.117 29.6523 115.059 29.5742 114.988 29.5117C114.996 29.4727 115 29.4375 115 29.4062C115.008 29.375 115.012 29.3398 115.012 29.3008C115.012 29.1445 114.984 28.9922 114.93 28.8438C114.883 28.6953 114.828 28.5547 114.766 28.4219C114.758 28.1562 114.73 27.8945 114.684 27.6367C114.637 27.3789 114.57 27.125 114.484 26.875C114.5 26.7812 114.512 26.6914 114.52 26.6055C114.527 26.5117 114.531 26.4219 114.531 26.3359C114.531 26.1094 114.52 25.8828 114.496 25.6562C114.473 25.4297 114.469 25.2031 114.484 24.9766C114.461 24.9375 114.438 24.9062 114.414 24.8828C114.391 24.8516 114.371 24.8164 114.355 24.7773H114.309C114.191 24.7773 114.078 24.7891 113.969 24.8125C113.859 24.8281 113.75 24.8359 113.641 24.8359C113.602 24.8359 113.566 24.8359 113.535 24.8359C113.504 24.8281 113.469 24.8203 113.43 24.8125C113.344 24.7266 113.277 24.6289 113.23 24.5195C113.184 24.4102 113.16 24.2969 113.16 24.1797C113.16 24.0078 113.207 23.8516 113.301 23.7109C113.496 23.6641 113.688 23.6094 113.875 23.5469C114.07 23.4766 114.258 23.3945 114.438 23.3008C114.461 23.1836 114.473 23.0664 114.473 22.9492C114.48 22.832 114.523 22.7227 114.602 22.6211C114.578 22.5586 114.539 22.5039 114.484 22.457C114.438 22.4023 114.414 22.3398 114.414 22.2695C114.414 22.2305 114.422 22.1797 114.438 22.1172C114.516 22.0312 114.57 21.9219 114.602 21.7891C114.633 21.6562 114.66 21.5156 114.684 21.3672C114.707 21.2188 114.73 21.0703 114.754 20.9219C114.785 20.7734 114.836 20.6406 114.906 20.5234C114.891 20.4609 114.879 20.3945 114.871 20.3242C114.863 20.2461 114.859 20.1758 114.859 20.1133C114.859 20.0195 114.863 19.9258 114.871 19.832C114.887 19.7305 114.91 19.6367 114.941 19.5508C114.855 19.4492 114.785 19.332 114.73 19.1992C114.676 19.0586 114.648 18.9219 114.648 18.7891C114.648 18.5312 114.773 18.3672 115.023 18.2969C115.016 18.2656 115.008 18.2383 115 18.2148C115 18.1914 115 18.168 115 18.1445C115 18.0742 115.02 18.0078 115.059 17.9453C115.098 17.8828 115.129 17.8203 115.152 17.7578C115.113 17.6562 115.094 17.5703 115.094 17.5C115.094 17.4375 115.105 17.3828 115.129 17.3359C115.152 17.2812 115.172 17.2227 115.188 17.1602C115.211 17.082 115.227 17.0117 115.234 16.9492C115.25 16.8867 115.273 16.832 115.305 16.7852C115.336 16.7383 115.375 16.7031 115.422 16.6797C115.477 16.6562 115.559 16.6445 115.668 16.6445C115.84 16.6445 116.004 16.6992 116.16 16.8086C116.324 16.9102 116.449 17.0273 116.535 17.1602C116.621 17.1523 116.695 17.1367 116.758 17.1133C116.828 17.082 116.891 17.0547 116.945 17.0312C117.008 17.0078 117.07 16.9883 117.133 16.9727C117.203 16.9492 117.285 16.9414 117.379 16.9492C117.402 16.8945 117.441 16.8594 117.496 16.8438C117.559 16.8203 117.621 16.8047 117.684 16.7969C117.746 16.7812 117.805 16.7617 117.859 16.7383C117.914 16.7148 117.949 16.6719 117.965 16.6094C117.996 16.6328 118.031 16.6445 118.07 16.6445C118.109 16.6445 118.148 16.6406 118.188 16.6328C118.227 16.6172 118.27 16.6094 118.316 16.6094C118.363 16.6094 118.402 16.625 118.434 16.6562C118.637 16.5469 118.852 16.4688 119.078 16.4219C119.312 16.3672 119.543 16.3359 119.77 16.3281C120.309 16.0312 120.875 15.8281 121.469 15.7188C122.07 15.6094 122.672 15.5547 123.273 15.5547C123.359 15.5547 123.441 15.5547 123.52 15.5547C123.605 15.5469 123.688 15.5508 123.766 15.5664C123.852 15.582 123.945 15.6094 124.047 15.6484C124.156 15.6875 124.262 15.7344 124.363 15.7891C124.473 15.8438 124.574 15.9062 124.668 15.9766C124.762 16.0391 124.84 16.0977 124.902 16.1523C124.965 16.293 124.996 16.4297 124.996 16.5625C124.996 16.625 124.992 16.6875 124.984 16.75C124.977 16.8047 124.973 16.8633 124.973 16.9258C124.973 17.0195 124.992 17.125 125.031 17.2422C125.008 17.2344 124.969 17.2305 124.914 17.2305C124.844 17.2305 124.785 17.2461 124.738 17.2773C124.691 17.3086 124.648 17.3438 124.609 17.3828C124.57 17.4219 124.531 17.457 124.492 17.4883C124.461 17.5195 124.43 17.5352 124.398 17.5352C124.336 17.5352 124.281 17.5234 124.234 17.5C124.195 17.4766 124.152 17.4531 124.105 17.4297C124.066 17.3984 124.023 17.375 123.977 17.3594C123.93 17.3359 123.875 17.3281 123.812 17.3359V17.2891C123.812 17.2031 123.785 17.1484 123.73 17.125C123.676 17.0938 123.633 17.0508 123.602 16.9961C123.484 16.9883 123.367 16.9727 123.25 16.9492C123.141 16.9258 123.027 16.9141 122.91 16.9141C122.754 16.9141 122.633 16.9688 122.547 17.0781C122.508 17.0625 122.473 17.043 122.441 17.0195C122.418 16.9961 122.383 16.9883 122.336 16.9961H122.301C121.879 16.9961 121.465 17.043 121.059 17.1367C120.652 17.2227 120.25 17.332 119.852 17.4648C119.453 17.5898 119.055 17.7266 118.656 17.875C118.258 18.0234 117.859 18.1523 117.461 18.2617C117.367 18.3867 117.27 18.4805 117.168 18.543C117.066 18.5977 116.965 18.6445 116.863 18.6836C116.77 18.7227 116.676 18.7617 116.582 18.8008C116.488 18.8398 116.406 18.9023 116.336 18.9883C116.273 19.0742 116.223 19.1953 116.184 19.3516C116.152 19.5 116.145 19.707 116.16 19.9727C116.121 20.0195 116.098 20.0703 116.09 20.125C116.082 20.1797 116.074 20.2344 116.066 20.2891C116.059 20.3359 116.047 20.3828 116.031 20.4297C116.016 20.4766 115.988 20.5195 115.949 20.5586C115.965 20.6367 115.977 20.7148 115.984 20.793C115.992 20.8711 115.996 20.9492 115.996 21.0273C115.996 21.3555 115.941 21.6758 115.832 21.9883C115.871 22.0508 115.891 22.1211 115.891 22.1992C115.891 22.2852 115.879 22.3633 115.855 22.4336C115.832 22.5039 115.82 22.582 115.82 22.668C115.82 22.7539 115.836 22.8242 115.867 22.8789C115.914 22.8789 115.941 22.8945 115.949 22.9258H116.02C116.16 22.9258 116.281 22.8906 116.383 22.8203C116.484 22.75 116.594 22.7148 116.711 22.7148C116.734 22.7148 116.762 22.7227 116.793 22.7383C116.824 22.7539 116.852 22.7617 116.875 22.7617C116.93 22.7617 116.953 22.7422 116.945 22.7031C116.938 22.6641 116.957 22.6367 117.004 22.6211L117.426 22.5508C117.691 22.5039 117.941 22.4492 118.176 22.3867C118.418 22.3164 118.656 22.2148 118.891 22.082C118.945 22.1055 119.008 22.1172 119.078 22.1172C119.141 22.1172 119.207 22.1094 119.277 22.0938C119.348 22.0703 119.414 22.0586 119.477 22.0586C119.531 22.0586 119.574 22.0664 119.605 22.082C119.652 22.0508 119.711 22.0273 119.781 22.0117C119.852 21.9883 119.891 21.9414 119.898 21.8711H119.922C119.953 21.8711 119.977 21.8789 119.992 21.8945C120.008 21.9102 120.031 21.918 120.062 21.918H120.109C120.273 21.8398 120.422 21.7812 120.555 21.7422C120.773 21.6875 121.008 21.6406 121.258 21.6016C121.508 21.5547 121.73 21.4766 121.926 21.3672C122.152 21.3672 122.371 21.332 122.582 21.2617C122.801 21.1836 123.02 21.1445 123.238 21.1445C123.34 21.1445 123.434 21.1602 123.52 21.1914C123.598 21.1367 123.688 21.0977 123.789 21.0742C123.898 21.0508 123.988 21.0078 124.059 20.9453C124.105 20.9531 124.152 20.9609 124.199 20.9688C124.254 20.9688 124.309 20.9688 124.363 20.9688C124.598 20.9688 124.82 20.9375 125.031 20.875C125.25 20.8047 125.473 20.7539 125.699 20.7227C125.754 20.7852 125.789 20.8516 125.805 20.9219C125.828 20.9844 125.84 21.0508 125.84 21.1211ZM131.242 21.2148C131.195 21.2852 131.168 21.3633 131.16 21.4492C131.152 21.5352 131.148 21.6133 131.148 21.6836C131.148 21.7773 131.148 21.8711 131.148 21.9648C131.156 22.0508 131.16 22.1367 131.16 22.2227V22.3984C131.145 22.4531 131.121 22.5078 131.09 22.5625C131.059 22.6172 131.035 22.6719 131.02 22.7266C130.91 23.0156 130.855 23.3047 130.855 23.5938V23.6172C130.816 23.7109 130.777 23.7969 130.738 23.875C130.707 23.9531 130.676 24.0312 130.645 24.1094C130.613 24.1797 130.59 24.2578 130.574 24.3438C130.559 24.4219 130.555 24.5156 130.562 24.625C130.453 24.8984 130.309 25.1484 130.129 25.375C129.949 25.5938 129.773 25.8203 129.602 26.0547C129.438 26.1172 129.285 26.1992 129.145 26.3008C129.012 26.4023 128.883 26.5156 128.758 26.6406C128.516 26.7188 128.277 26.8086 128.043 26.9102C127.809 27.0117 127.598 27.1484 127.41 27.3203C127.262 27.3359 127.113 27.3594 126.965 27.3906C126.816 27.4219 126.672 27.4688 126.531 27.5312H126.391C126.32 27.5312 126.27 27.5156 126.238 27.4844C126.137 27.5391 126.031 27.5781 125.922 27.6016C125.812 27.6172 125.703 27.625 125.594 27.625C125.453 27.625 125.312 27.6172 125.172 27.6016C125.039 27.5781 124.902 27.5547 124.762 27.5312C124.684 27.4219 124.574 27.3398 124.434 27.2852C124.293 27.2227 124.168 27.1641 124.059 27.1094C123.832 26.7969 123.668 26.4961 123.566 26.207C123.465 25.9102 123.359 25.5781 123.25 25.2109C123.266 25.1016 123.293 24.9961 123.332 24.8945C123.371 24.7852 123.387 24.668 123.379 24.543C123.52 24.1367 123.703 23.7695 123.93 23.4414C124.164 23.1055 124.43 22.7852 124.727 22.4805C124.727 22.4336 124.734 22.3945 124.75 22.3633C124.773 22.332 124.777 22.2852 124.762 22.2227C124.77 22.2305 124.785 22.2344 124.809 22.2344C124.871 22.2344 124.91 22.2188 124.926 22.1875C124.941 22.1484 124.945 22.1055 124.938 22.0586C125.219 21.8789 125.473 21.6719 125.699 21.4375C125.934 21.2031 126.199 21.0078 126.496 20.8516C126.52 20.7812 126.559 20.7227 126.613 20.6758C126.668 20.6289 126.711 20.5742 126.742 20.5117C126.992 20.4414 127.219 20.3359 127.422 20.1953C127.625 20.0547 127.84 19.9297 128.066 19.8203C128.191 19.75 128.309 19.7031 128.418 19.6797C128.535 19.6484 128.66 19.6172 128.793 19.5859C128.84 19.5703 128.883 19.5586 128.922 19.5508C128.961 19.543 129.004 19.5391 129.051 19.5391C129.191 19.5391 129.328 19.5664 129.461 19.6211C129.594 19.668 129.73 19.6914 129.871 19.6914C129.91 19.6914 129.941 19.6914 129.965 19.6914C129.996 19.6836 130.027 19.6758 130.059 19.668C130.191 19.832 130.359 19.957 130.562 20.043C130.609 20.1602 130.664 20.2617 130.727 20.3477C130.797 20.4336 130.867 20.5195 130.938 20.6055C131.008 20.6836 131.07 20.7734 131.125 20.875C131.188 20.9688 131.227 21.082 131.242 21.2148ZM130.07 21.8242C130.07 21.7852 130.066 21.75 130.059 21.7188C129.98 21.6953 129.906 21.6641 129.836 21.625C129.766 21.5859 129.688 21.5664 129.602 21.5664C129.547 21.5664 129.492 21.5781 129.438 21.6016C129.43 21.5469 129.406 21.5078 129.367 21.4844C129.336 21.4609 129.297 21.4414 129.25 21.4258C129.211 21.4023 129.168 21.3867 129.121 21.3789C129.082 21.3633 129.047 21.3398 129.016 21.3086C128.992 21.2461 128.965 21.1836 128.934 21.1211C128.91 21.0508 128.863 21 128.793 20.9688C128.723 21.0391 128.641 21.0977 128.547 21.1445C128.453 21.1836 128.355 21.2227 128.254 21.2617C128.16 21.3008 128.066 21.3477 127.973 21.4023C127.887 21.457 127.812 21.5234 127.75 21.6016H127.539C127.492 21.6875 127.426 21.7539 127.34 21.8008C127.254 21.8398 127.18 21.8984 127.117 21.9766C126.992 22.0391 126.875 22.1172 126.766 22.2109C126.664 22.2969 126.562 22.3906 126.461 22.4922C126.359 22.5859 126.258 22.6836 126.156 22.7852C126.062 22.8867 125.961 22.9805 125.852 23.0664C125.75 23.2852 125.637 23.4766 125.512 23.6406C125.395 23.7969 125.281 23.957 125.172 24.1211C125.07 24.2852 124.98 24.4648 124.902 24.6602C124.832 24.8477 124.797 25.082 124.797 25.3633V25.4805C124.797 25.5195 124.801 25.5586 124.809 25.5977C124.91 25.707 124.992 25.8242 125.055 25.9492C125.125 26.0742 125.238 26.1641 125.395 26.2188C125.551 26.2812 125.715 26.3086 125.887 26.3008C126.066 26.293 126.238 26.3125 126.402 26.3594C126.777 26.2891 127.137 26.1758 127.48 26.0195C127.832 25.8555 128.164 25.6602 128.477 25.4336C128.523 25.3945 128.578 25.3555 128.641 25.3164C128.703 25.2695 128.754 25.2227 128.793 25.1758C128.832 25.1367 128.863 25.0938 128.887 25.0469C128.918 25 128.949 24.957 128.98 24.918C129.043 24.8164 129.113 24.7148 129.191 24.6133C129.27 24.5117 129.352 24.418 129.438 24.332C129.477 24.1602 129.527 23.9961 129.59 23.8398C129.652 23.6758 129.715 23.5156 129.777 23.3594C129.84 23.2031 129.891 23.043 129.93 22.8789C129.977 22.7148 130 22.543 130 22.3633C130 22.3242 129.996 22.2812 129.988 22.2344C129.988 22.1875 129.984 22.1445 129.977 22.1055C130.039 22.0195 130.07 21.9258 130.07 21.8242ZM139.469 21.2148C139.422 21.2852 139.395 21.3633 139.387 21.4492C139.379 21.5352 139.375 21.6133 139.375 21.6836C139.375 21.7773 139.375 21.8711 139.375 21.9648C139.383 22.0508 139.387 22.1367 139.387 22.2227V22.3984C139.371 22.4531 139.348 22.5078 139.316 22.5625C139.285 22.6172 139.262 22.6719 139.246 22.7266C139.137 23.0156 139.082 23.3047 139.082 23.5938V23.6172C139.043 23.7109 139.004 23.7969 138.965 23.875C138.934 23.9531 138.902 24.0312 138.871 24.1094C138.84 24.1797 138.816 24.2578 138.801 24.3438C138.785 24.4219 138.781 24.5156 138.789 24.625C138.68 24.8984 138.535 25.1484 138.355 25.375C138.176 25.5938 138 25.8203 137.828 26.0547C137.664 26.1172 137.512 26.1992 137.371 26.3008C137.238 26.4023 137.109 26.5156 136.984 26.6406C136.742 26.7188 136.504 26.8086 136.27 26.9102C136.035 27.0117 135.824 27.1484 135.637 27.3203C135.488 27.3359 135.34 27.3594 135.191 27.3906C135.043 27.4219 134.898 27.4688 134.758 27.5312H134.617C134.547 27.5312 134.496 27.5156 134.465 27.4844C134.363 27.5391 134.258 27.5781 134.148 27.6016C134.039 27.6172 133.93 27.625 133.82 27.625C133.68 27.625 133.539 27.6172 133.398 27.6016C133.266 27.5781 133.129 27.5547 132.988 27.5312C132.91 27.4219 132.801 27.3398 132.66 27.2852C132.52 27.2227 132.395 27.1641 132.285 27.1094C132.059 26.7969 131.895 26.4961 131.793 26.207C131.691 25.9102 131.586 25.5781 131.477 25.2109C131.492 25.1016 131.52 24.9961 131.559 24.8945C131.598 24.7852 131.613 24.668 131.605 24.543C131.746 24.1367 131.93 23.7695 132.156 23.4414C132.391 23.1055 132.656 22.7852 132.953 22.4805C132.953 22.4336 132.961 22.3945 132.977 22.3633C133 22.332 133.004 22.2852 132.988 22.2227C132.996 22.2305 133.012 22.2344 133.035 22.2344C133.098 22.2344 133.137 22.2188 133.152 22.1875C133.168 22.1484 133.172 22.1055 133.164 22.0586C133.445 21.8789 133.699 21.6719 133.926 21.4375C134.16 21.2031 134.426 21.0078 134.723 20.8516C134.746 20.7812 134.785 20.7227 134.84 20.6758C134.895 20.6289 134.938 20.5742 134.969 20.5117C135.219 20.4414 135.445 20.3359 135.648 20.1953C135.852 20.0547 136.066 19.9297 136.293 19.8203C136.418 19.75 136.535 19.7031 136.645 19.6797C136.762 19.6484 136.887 19.6172 137.02 19.5859C137.066 19.5703 137.109 19.5586 137.148 19.5508C137.188 19.543 137.23 19.5391 137.277 19.5391C137.418 19.5391 137.555 19.5664 137.688 19.6211C137.82 19.668 137.957 19.6914 138.098 19.6914C138.137 19.6914 138.168 19.6914 138.191 19.6914C138.223 19.6836 138.254 19.6758 138.285 19.668C138.418 19.832 138.586 19.957 138.789 20.043C138.836 20.1602 138.891 20.2617 138.953 20.3477C139.023 20.4336 139.094 20.5195 139.164 20.6055C139.234 20.6836 139.297 20.7734 139.352 20.875C139.414 20.9688 139.453 21.082 139.469 21.2148ZM138.297 21.8242C138.297 21.7852 138.293 21.75 138.285 21.7188C138.207 21.6953 138.133 21.6641 138.062 21.625C137.992 21.5859 137.914 21.5664 137.828 21.5664C137.773 21.5664 137.719 21.5781 137.664 21.6016C137.656 21.5469 137.633 21.5078 137.594 21.4844C137.562 21.4609 137.523 21.4414 137.477 21.4258C137.438 21.4023 137.395 21.3867 137.348 21.3789C137.309 21.3633 137.273 21.3398 137.242 21.3086C137.219 21.2461 137.191 21.1836 137.16 21.1211C137.137 21.0508 137.09 21 137.02 20.9688C136.949 21.0391 136.867 21.0977 136.773 21.1445C136.68 21.1836 136.582 21.2227 136.48 21.2617C136.387 21.3008 136.293 21.3477 136.199 21.4023C136.113 21.457 136.039 21.5234 135.977 21.6016H135.766C135.719 21.6875 135.652 21.7539 135.566 21.8008C135.48 21.8398 135.406 21.8984 135.344 21.9766C135.219 22.0391 135.102 22.1172 134.992 22.2109C134.891 22.2969 134.789 22.3906 134.688 22.4922C134.586 22.5859 134.484 22.6836 134.383 22.7852C134.289 22.8867 134.188 22.9805 134.078 23.0664C133.977 23.2852 133.863 23.4766 133.738 23.6406C133.621 23.7969 133.508 23.957 133.398 24.1211C133.297 24.2852 133.207 24.4648 133.129 24.6602C133.059 24.8477 133.023 25.082 133.023 25.3633V25.4805C133.023 25.5195 133.027 25.5586 133.035 25.5977C133.137 25.707 133.219 25.8242 133.281 25.9492C133.352 26.0742 133.465 26.1641 133.621 26.2188C133.777 26.2812 133.941 26.3086 134.113 26.3008C134.293 26.293 134.465 26.3125 134.629 26.3594C135.004 26.2891 135.363 26.1758 135.707 26.0195C136.059 25.8555 136.391 25.6602 136.703 25.4336C136.75 25.3945 136.805 25.3555 136.867 25.3164C136.93 25.2695 136.98 25.2227 137.02 25.1758C137.059 25.1367 137.09 25.0938 137.113 25.0469C137.145 25 137.176 24.957 137.207 24.918C137.27 24.8164 137.34 24.7148 137.418 24.6133C137.496 24.5117 137.578 24.418 137.664 24.332C137.703 24.1602 137.754 23.9961 137.816 23.8398C137.879 23.6758 137.941 23.5156 138.004 23.3594C138.066 23.2031 138.117 23.043 138.156 22.8789C138.203 22.7148 138.227 22.543 138.227 22.3633C138.227 22.3242 138.223 22.2812 138.215 22.2344C138.215 22.1875 138.211 22.1445 138.203 22.1055C138.266 22.0195 138.297 21.9258 138.297 21.8242ZM148.152 22.2227C148.152 22.3008 148.125 22.3516 148.07 22.375C148.016 22.3984 147.988 22.4453 147.988 22.5156C147.988 22.5391 147.996 22.5586 148.012 22.5742C148.027 22.5898 148.035 22.6133 148.035 22.6445V22.6914C147.941 23.1445 147.805 23.5391 147.625 23.875C147.453 24.2109 147.25 24.5195 147.016 24.8008C146.781 25.082 146.516 25.3477 146.219 25.5977C145.93 25.8477 145.617 26.1094 145.281 26.3828C145.188 26.4609 145.09 26.5391 144.988 26.6172C144.895 26.6953 144.805 26.7773 144.719 26.8633L144.461 27.1094C144.453 27.1172 144.41 27.1367 144.332 27.168C144.254 27.1914 144.207 27.207 144.191 27.2148C144.082 27.2617 143.965 27.3164 143.84 27.3789C143.723 27.4414 143.621 27.5195 143.535 27.6133C143.379 27.6133 143.246 27.6367 143.137 27.6836C143.027 27.7305 142.906 27.793 142.773 27.8711C142.734 27.8711 142.699 27.8633 142.668 27.8477C142.645 27.832 142.617 27.8164 142.586 27.8008C142.555 27.7852 142.52 27.7773 142.48 27.7773C142.449 27.7695 142.406 27.7734 142.352 27.7891C142.258 27.6328 142.156 27.5 142.047 27.3906C141.938 27.2812 141.789 27.2148 141.602 27.1914C141.578 27.0586 141.523 26.957 141.438 26.8867C141.352 26.8086 141.266 26.7266 141.18 26.6406C141.164 26.5938 141.152 26.5391 141.145 26.4766C141.137 26.4141 141.121 26.3555 141.098 26.3008C141.074 26.2461 141.043 26.1992 141.004 26.1602C140.965 26.1211 140.91 26.1016 140.84 26.1016C140.832 26.0547 140.852 26.0312 140.898 26.0312C140.945 26.0312 140.969 26.0117 140.969 25.9727C140.969 25.9258 140.961 25.8789 140.945 25.832C140.93 25.7852 140.922 25.7344 140.922 25.6797C140.922 25.6406 140.926 25.6055 140.934 25.5742C140.941 25.543 140.953 25.5078 140.969 25.4688C140.945 25.2578 140.934 25.043 140.934 24.8242C140.934 24.4023 140.961 23.9883 141.016 23.582C141.078 23.168 141.109 22.75 141.109 22.3281C141.109 22.1406 141.098 21.9531 141.074 21.7656C141.059 21.5781 141.023 21.3945 140.969 21.2148C140.789 21.2539 140.609 21.3008 140.43 21.3555C140.25 21.4023 140.082 21.4688 139.926 21.5547C139.84 21.5 139.75 21.4688 139.656 21.4609C139.555 21.4453 139.457 21.4219 139.363 21.3906C139.309 21.2812 139.281 21.168 139.281 21.0508C139.281 20.9414 139.301 20.8359 139.34 20.7344L139.457 20.4297C139.645 20.3906 139.832 20.332 140.02 20.2539C140.199 20.1758 140.383 20.1055 140.57 20.043C140.633 20.0273 140.711 20.0078 140.805 19.9844C140.906 19.9609 140.977 19.9414 141.016 19.9258C141.07 19.9023 141.105 19.8594 141.121 19.7969C141.145 19.7266 141.176 19.668 141.215 19.6211H141.414C141.461 19.6211 141.512 19.625 141.566 19.6328C141.621 19.6328 141.672 19.6445 141.719 19.668C142 19.5977 142.281 19.5547 142.562 19.5391C142.844 19.5156 143.133 19.4844 143.43 19.4453C143.461 19.4453 143.508 19.4414 143.57 19.4336L143.77 19.3984C143.84 19.3828 143.902 19.3711 143.957 19.3633C144.02 19.3477 144.062 19.3398 144.086 19.3398C144.109 19.3398 144.121 19.3516 144.121 19.375H144.32C144.656 19.375 144.984 19.418 145.305 19.5039L146.266 19.7617C146.398 19.8711 146.531 19.9766 146.664 20.0781C146.797 20.1797 146.945 20.2695 147.109 20.3477C147.148 20.4727 147.207 20.5742 147.285 20.6523C147.371 20.7227 147.465 20.8008 147.566 20.8867C147.605 20.9883 147.656 21.0977 147.719 21.2148C147.789 21.3242 147.855 21.4375 147.918 21.5547C147.98 21.6719 148.035 21.7891 148.082 21.9062C148.129 22.0156 148.152 22.1211 148.152 22.2227ZM147.062 22.3984C146.977 22.2188 146.895 22.0312 146.816 21.8359C146.738 21.6406 146.641 21.4648 146.523 21.3086C146.383 21.2695 146.238 21.2227 146.09 21.168C145.949 21.1055 145.852 21 145.797 20.8516C145.781 20.8594 145.754 20.8633 145.715 20.8633C145.645 20.8633 145.582 20.8359 145.527 20.7812C145.473 20.7266 145.41 20.6914 145.34 20.6758C145.277 20.668 145.191 20.6562 145.082 20.6406C144.98 20.625 144.871 20.6133 144.754 20.6055C144.637 20.5977 144.52 20.5898 144.402 20.582C144.293 20.5742 144.207 20.5703 144.145 20.5703C144.082 20.5703 144.016 20.5742 143.945 20.582C143.883 20.582 143.816 20.5859 143.746 20.5938C143.684 20.5938 143.645 20.6055 143.629 20.6289C143.613 20.6445 143.582 20.6602 143.535 20.6758C143.496 20.6602 143.453 20.6523 143.406 20.6523H143.266C143.102 20.6523 142.938 20.6797 142.773 20.7344C142.617 20.7812 142.461 20.8477 142.305 20.9336V20.9805C142.305 21.043 142.332 21.0781 142.387 21.0859C142.441 21.0938 142.473 21.125 142.48 21.1797C142.441 21.1797 142.41 21.1836 142.387 21.1914C142.363 21.1914 142.352 21.2188 142.352 21.2734C142.352 21.3516 142.359 21.4375 142.375 21.5312C142.398 21.625 142.41 21.7188 142.41 21.8125C142.41 21.8828 142.402 21.9648 142.387 22.0586C142.371 22.1523 142.332 22.2266 142.27 22.2812C142.348 22.3516 142.387 22.4453 142.387 22.5625C142.387 22.6406 142.371 22.7227 142.34 22.8086C142.309 22.8945 142.27 22.9688 142.223 23.0312C142.207 23.3594 142.176 23.6914 142.129 24.0273C142.082 24.3633 142.059 24.6953 142.059 25.0234C142.059 25.1875 142.066 25.3477 142.082 25.5039C142.105 25.6602 142.141 25.8164 142.188 25.9727C142.273 26.0586 142.363 26.125 142.457 26.1719C142.559 26.2188 142.664 26.2656 142.773 26.3125V26.3477C142.773 26.3711 142.758 26.3945 142.727 26.418C142.695 26.4414 142.68 26.4727 142.68 26.5117C142.68 26.543 142.695 26.5586 142.727 26.5586C143.055 26.4648 143.363 26.3516 143.652 26.2188C143.941 26.0859 144.211 25.9062 144.461 25.6797C144.484 25.6562 144.508 25.6445 144.531 25.6445C144.547 25.6445 144.566 25.6484 144.59 25.6562C144.621 25.6641 144.648 25.6719 144.672 25.6797L144.66 25.6328C144.66 25.5859 144.672 25.543 144.695 25.5039C144.727 25.4648 144.762 25.4297 144.801 25.3984L144.918 25.293C144.957 25.2539 144.988 25.2148 145.012 25.1758C145.074 25.1602 145.117 25.1289 145.141 25.082C145.172 25.0352 145.223 25.0117 145.293 25.0117C145.309 24.9258 145.352 24.8633 145.422 24.8242C145.492 24.7773 145.535 24.7109 145.551 24.625C145.707 24.5391 145.844 24.4336 145.961 24.3086C146.086 24.1836 146.199 24.0508 146.301 23.9102C146.41 23.7695 146.512 23.625 146.605 23.4766C146.699 23.3203 146.797 23.1719 146.898 23.0312V22.9844C146.898 22.8594 146.918 22.7578 146.957 22.6797C147.004 22.6016 147.039 22.5078 147.062 22.3984Z" fill="black"/>
</g>
<mask id="path-2-inside-1" fill="white">
<path d="M186.04 18.3754C187.02 21.3628 186.886 24.6431 185.668 27.4944C184.449 30.3458 182.247 32.5348 179.544 33.5797C176.841 34.6247 173.859 34.4401 171.255 33.0665C168.65 31.6929 166.636 29.2429 165.656 26.2554L175.848 22.3154L186.04 18.3754Z"/>
</mask>
<path d="M186.04 18.3754C187.02 21.3628 186.886 24.6431 185.668 27.4944C184.449 30.3458 182.247 32.5348 179.544 33.5797C176.841 34.6247 173.859 34.4401 171.255 33.0665C168.65 31.6929 166.636 29.2429 165.656 26.2554L175.848 22.3154L186.04 18.3754Z" stroke="#587D1A" stroke-width="4" mask="url(#path-2-inside-1)"/>
<path d="M178.047 18.3934C169.363 9.95367 188.39 17.1 184.813 8.14311" stroke="black"/>
<path d="M168.594 21.2254C160.422 12.01 181.2 16.5045 179.222 5.12622" stroke="black"/>
<defs>
<filter id="filter0_d" x="0.597656" y="15.5508" width="151.555" height="22.793" filterUnits="userSpaceOnUse" color-interpolation-filters="sRGB">
<feFlood flood-opacity="0" result="BackgroundImageFix"/>
<feColorMatrix in="SourceAlpha" type="matrix" values="0 0 0 0 0 0 0 0 0 0 0 0 0 0 0 0 0 0 127 0"/>
<feOffset dy="4"/>
<feGaussianBlur stdDeviation="2"/>
<feColorMatrix type="matrix" values="0 0 0 0 0 0 0 0 0 0 0 0 0 0 0 0 0 0 0.25 0"/>
<feBlend mode="normal" in2="BackgroundImageFix" result="effect1_dropShadow"/>
<feBlend mode="normal" in="SourceGraphic" in2="effect1_dropShadow" result="shape"/>
</filter>
</defs>
</svg>
